<?xml version="1.0" encoding="UTF-8"?>
<svg id="Layer_1" data-name="Layer 1" xmlns="http://www.w3.org/2000/svg" viewBox="0 0 355.62 425.25">
  <defs>
    <style>
      .cls-1 {
        fill: #fefefe;
        stroke-width: 0px;
      }
    </style>
  </defs>
  <g>
    <g>
      <path class="cls-1" d="m78.88,315v-46.08l-1.68-8.51,1.68-5.05h26.95c4.1,0,7.79.63,11.08,1.89,3.29,1.26,5.9,3.4,7.83,6.4,1.94,3,2.91,7.15,2.91,12.42s-1.04,9.45-3.12,12.51c-2.08,3.06-4.96,5.24-8.63,6.53-3.68,1.29-7.88,1.94-12.59,1.94h-9.27v4.38l.84,8.42-.84,5.14h-15.16Zm15.16-31.17h8.26c2.92,0,5.25-.55,6.99-1.64,1.74-1.1,2.61-3.13,2.61-6.11,0-2.08-.42-3.64-1.26-4.67-.84-1.04-2.01-1.73-3.5-2.06-1.49-.34-3.22-.51-5.18-.51h-8.76l.84,14.99Z"/>
      <path class="cls-1" d="m167.15,315.85c-4.32,0-8.41-.44-12.26-1.31-3.85-.87-7.24-2.43-10.19-4.67-2.95-2.25-5.26-5.36-6.95-9.35-1.68-3.99-2.53-9.1-2.53-15.33s.9-10.99,2.7-14.95c1.8-3.96,4.2-7.09,7.2-9.39,3-2.3,6.35-3.93,10.02-4.89,3.68-.95,7.4-1.43,11.16-1.43,2.75,0,5.14.14,7.16.42,2.02.28,3.96.65,5.81,1.09l11.46,6.65-5.9,13.06-18.62-6.57c-2.7,0-5.18.53-7.45,1.6-2.27,1.07-4.1,2.77-5.47,5.1-1.38,2.33-2.06,5.46-2.06,9.39,0,6.35,1.42,10.8,4.25,13.35,2.83,2.56,6.72,3.83,11.67,3.83,2.53,0,4.51-.13,5.94-.38s2.54-.46,3.33-.63v-6.4h-10.7v-12.47h26.79l.93,5.05-1.85,6.99v17.69c-.62.22-2.01.62-4.17,1.18-2.16.56-4.97,1.1-8.42,1.6-3.45.5-7.4.76-11.83.76Z"/>
      <path class="cls-1" d="m203.54,315v-46.08l-1.68-8.51,1.68-5.05h26.95c4.1,0,7.79.63,11.08,1.89,3.29,1.26,5.9,3.4,7.83,6.4,1.94,3,2.91,7.15,2.91,12.42,0,4.77-.87,8.63-2.61,11.58-1.74,2.95-4.16,5.15-7.24,6.61l.84.93,8.34,10.44,4.8,4.3v5.05h-18.95l-11.79-17.94h-6.99v4.38l.84,8.42-.84,5.14h-15.16Zm15.16-31.17h8.26c2.92,0,5.25-.55,6.99-1.64,1.74-1.1,2.61-3.13,2.61-6.11,0-2.08-.42-3.64-1.26-4.67-.84-1.04-2.01-1.73-3.5-2.06-1.49-.34-3.22-.51-5.18-.51h-8.76l.84,14.99Z"/>
      <path class="cls-1" d="m263.18,315v-46.16l-.84-8.42.84-5.05h15.25v59.64h-15.25Z"/>
    </g>
    <path class="cls-1" d="m27.03,382.18c-3.09,0-6.01-.29-8.76-.88-2.75-.59-5.14-1.31-7.16-2.15-2.02-.84-3.51-1.63-4.46-2.36v-15.08c2.7,1.52,6.09,2.94,10.19,4.25,4.1,1.32,8.65,1.98,13.65,1.98,2.02,0,3.52-.27,4.51-.8.98-.53,1.47-1.47,1.47-2.82,0-1.46-1.11-2.68-3.33-3.66-2.22-.98-5.71-2.2-10.49-3.66-3.71-1.18-6.86-2.48-9.48-3.92-2.61-1.43-4.61-3.23-5.98-5.39-1.38-2.16-2.06-4.93-2.06-8.3s.9-6.63,2.7-9.43c1.8-2.81,4.6-5.03,8.42-6.66,3.82-1.63,8.7-2.44,14.66-2.44,1.8,0,3.72.07,5.77.21,2.05.14,3.69.32,4.93.55l9.52,6.99-3.29,10.28-19.96-5.47c-2.3,0-4,.48-5.1,1.43-1.09.96-1.64,2.11-1.64,3.45,0,1.63.93,2.92,2.78,3.88,1.85.96,4.52,1.91,8,2.86,5.5,1.52,9.77,3.2,12.8,5.05s5.17,3.95,6.4,6.28c1.23,2.33,1.85,4.96,1.85,7.88,0,5.39-2.16,9.73-6.49,13.01-4.32,3.29-10.81,4.93-19.46,4.93Z"/>
    <path class="cls-1" d="m87.43,382.18c-8.65,0-15.15-1.98-19.5-5.94-4.35-3.96-6.53-10.32-6.53-19.08v-21.9l.08-8.51-.08-5.05h15.33v33.78c0,3.93.79,7.12,2.36,9.56,1.57,2.44,4.35,3.66,8.34,3.66s6.81-1.14,8.47-3.41c1.66-2.27,2.48-5.55,2.48-9.81v-33.78h15.08v35.46c0,8.59-2.12,14.91-6.36,18.95-4.24,4.04-10.8,6.06-19.67,6.06Z"/>
    <path class="cls-1" d="m125.25,381.33v-46.08l-1.68-8.42,1.77-5.05h16.09l16.51,32.01h1.68l13.65-32.01h16.76l.84,5.05-.84,8.09v46.41h-15.25l.25-7.16v-23.5h-.93l-3.37,8.09-7.58,14.15h-10.11l-11.62-22.24h-.84v6.82l.84,23.84h-16.17Z"/>
    <path class="cls-1" d="m202.66,381.33v-46.08l-1.68-8.42,1.77-5.05h16.09l16.51,32.01h1.68l13.65-32.01h16.76l.84,5.05-.84,8.09v46.41h-15.25l.25-7.16v-23.5h-.93l-3.37,8.09-7.58,14.15h-10.11l-11.62-22.24h-.84v6.82l.84,23.84h-16.17Z"/>
    <path class="cls-1" d="m279.23,381.33v-46.16l-.84-8.42.84-5.05h15.25v59.64h-15.25Z"/>
    <path class="cls-1" d="m318.06,381.33v-46.16l-16.85.84v-14.32h49.28v14.32l-17.27-.84v32.68l.93,8.42-.93,5.05h-15.16Z"/>
  </g>
  <g>
    <path class="cls-1" d="m100.33,420.1v-4.01c1.13-.76,2.13-1.45,3.01-2.06.88-.61,1.79-1.29,2.74-2.02.94-.73,1.78-1.46,2.52-2.17,1.59-1.49,2.78-2.83,3.56-4.01.78-1.18,1.18-2.47,1.18-3.9,0-.96-.3-1.71-.9-2.26-.6-.55-1.59-.83-2.96-.83-1.03,0-2.07.11-3.12.33-1.05.22-2.03.5-2.94.83-.91.33-1.68.67-2.32,1.01v-5.15c.24-.12.74-.35,1.49-.68.75-.33,1.73-.64,2.96-.94,1.22-.29,2.67-.44,4.34-.44,3.11,0,5.42.67,6.93,2,1.51,1.34,2.26,3.23,2.26,5.68,0,1.52-.31,2.93-.94,4.23-.62,1.3-1.45,2.49-2.46,3.56-1.02,1.08-2.11,2.06-3.27,2.94-1.16.88-2.29,1.67-3.36,2.35l.18.74,9.85-.74v5.51h-18.75Z"/>
    <path class="cls-1" d="m130.11,394.08v27.22h4.03v-27.22h-4.03Z"/>
    <path class="cls-1" d="m155.39,420.46c-2.08,0-3.89-.43-5.42-1.29-1.53-.86-2.71-2.26-3.55-4.21-.83-1.95-1.25-4.58-1.25-7.88s.42-5.72,1.25-7.68c.83-1.96,2.02-3.4,3.55-4.32,1.53-.92,3.34-1.38,5.42-1.38s3.92.47,5.44,1.4c1.52.93,2.7,2.38,3.53,4.34.83,1.96,1.25,4.51,1.25,7.65s-.42,5.87-1.25,7.83c-.83,1.96-2.01,3.38-3.53,4.24-1.52.87-3.33,1.31-5.44,1.31Zm0-5.29c1.69,0,2.9-.61,3.64-1.82.74-1.21,1.1-3.3,1.1-6.27,0-2.79-.37-4.84-1.1-6.14-.74-1.3-1.95-1.95-3.64-1.95s-2.84.66-3.6,1.97c-.76,1.31-1.14,3.35-1.14,6.12,0,2.94.38,5.02,1.14,6.25s1.96,1.84,3.6,1.84Z"/>
    <path class="cls-1" d="m176.62,394.08v27.22h4.05v-27.22h-4.05Z"/>
    <path class="cls-1" d="m191.52,420.1v-4.01c1.13-.76,2.13-1.45,3.01-2.06.88-.61,1.79-1.29,2.74-2.02.94-.73,1.78-1.46,2.52-2.17,1.59-1.49,2.78-2.83,3.56-4.01.78-1.18,1.18-2.47,1.18-3.9,0-.96-.3-1.71-.9-2.26-.6-.55-1.59-.83-2.96-.83-1.03,0-2.07.11-3.12.33s-2.03.5-2.94.83c-.91.33-1.68.67-2.32,1.01v-5.15c.24-.12.74-.35,1.49-.68.75-.33,1.73-.64,2.96-.94,1.22-.29,2.67-.44,4.34-.44,3.11,0,5.42.67,6.93,2,1.51,1.34,2.26,3.23,2.26,5.68,0,1.52-.31,2.93-.94,4.23-.62,1.3-1.45,2.49-2.46,3.56-1.02,1.08-2.11,2.06-3.27,2.94-1.16.88-2.29,1.67-3.36,2.35l.18.74,9.85-.74v5.51h-18.75Z"/>
    <path class="cls-1" d="m221.3,394.08v27.22h4.03v-27.22h-4.03Z"/>
    <path class="cls-1" d="m245.44,420.46c-.93,0-1.73-.03-2.41-.07s-1.35-.12-2.04-.22l-4.63-1.69,1.47-5.11,6.51,2.02c1.69,0,2.98-.31,3.88-.94.89-.62,1.34-1.53,1.34-2.7,0-1.1-.31-1.98-.92-2.65-.61-.66-1.79-.99-3.53-.99h-7.64v-14.04h16.36v5.11l-9.19-.37h-1.54v5h2.46c3.41,0,5.88.65,7.43,1.95,1.54,1.3,2.32,3.22,2.32,5.77,0,1.74-.39,3.28-1.16,4.63-.77,1.35-1.89,2.4-3.36,3.16-1.47.76-3.25,1.14-5.33,1.14Z"/>
  </g>
  <path class="cls-1" d="m90.52,59.07c3.06,2.22,6.66,3.39,10.37,3.39.93,0,1.87-.07,2.81-.22,4.66-.74,8.76-3.26,11.55-7.09,2.78-3.83,3.9-8.51,3.16-13.17-.74-4.66-3.26-8.76-7.09-11.55-3.83-2.78-8.51-3.91-13.17-3.16-4.66.74-8.76,3.26-11.55,7.09-2.78,3.83-3.9,8.51-3.16,13.17.74,4.66,3.26,8.76,7.09,11.55Zm9.51-19.88c.3-.05.59-.07.88-.07,2.72,0,5.11,1.98,5.55,4.74.49,3.06-1.61,5.95-4.67,6.44-1.47.24-2.96-.12-4.18-1.01-1.22-.88-2.02-2.19-2.25-3.67-.49-3.06,1.61-5.95,4.67-6.44Zm108.79-.72c1.8.59,3.65.88,5.49.88,2.76,0,5.49-.65,8.01-1.94,8.7-4.44,12.16-15.12,7.73-23.82-4.44-8.69-15.12-12.16-23.82-7.73-8.7,4.43-12.16,15.12-7.73,23.81,2.14,4.21,5.81,7.33,10.31,8.79Zm.12-18.57c.47-1.43,1.46-2.6,2.79-3.28,1.34-.68,2.86-.8,4.29-.34,1.43.46,2.6,1.46,3.28,2.79.68,1.33.8,2.86.34,4.29-.47,1.43-1.46,2.6-2.79,3.28-1.33.68-2.85.8-4.29.33-1.43-.46-2.6-1.46-3.28-2.79-.68-1.33-.8-2.86-.34-4.29Zm34.04,105.65l24.19-49.25c1.39-2.84.83-6.25-1.41-8.49-2.24-2.24-5.65-2.8-8.49-1.4l-49.23,24.23-28.92-21.57-4.62-32.02,27.05,26.27c2,1.94,4.89,2.6,7.53,1.7l41-13.92c3.86-1.31,5.93-5.52,4.62-9.38-1.31-3.86-5.52-5.93-9.37-4.62l-36.71,12.47-39.37-38.22c-2.27-2.21-5.68-2.72-8.51-1.28-2.82,1.44-4.41,4.51-3.96,7.64l7.83,54.31-29.45,20.84-31.89-5.51,33.34-17.61c2.47-1.3,3.98-3.84,3.94-6.63l-.57-43.29c-.06-4.07-3.45-7.3-7.49-7.29-4.07.05-7.35,3.41-7.29,7.49l.51,38.77-48.52,25.63c-2.8,1.48-4.34,4.57-3.85,7.69.5,3.13,2.92,5.59,6.04,6.12l54.07,9.34,10.72,34.45-15.09,28.62-6.45-37.15c-.48-2.75-2.43-4.97-5.09-5.8l-41.35-12.84c-3.88-1.2-8.04.98-9.25,4.87-1.21,3.89.98,8.04,4.87,9.25l37.03,11.5,9.38,54.06c.54,3.12,3,5.54,6.13,6.04,3.12.49,6.22-1.06,7.69-3.85l25.59-48.54,36.08.45,22.56,23.2-37.33-5.35c-2.75-.4-5.47.77-7.09,3.05l-24.98,35.36c-2.35,3.33-1.55,7.95,1.77,10.3,1.29.91,2.78,1.35,4.25,1.35,2.32,0,4.61-1.09,6.05-3.12l22.37-31.67,54.32,7.78c3.11.45,6.2-1.14,7.64-3.96,1.44-2.82.92-6.24-1.29-8.5l-38.25-39.34,11.57-34.17,29.03-14.29-16.62,33.85c-1.23,2.5-.96,5.45.71,7.68l25.91,34.69c2.44,3.26,7.08,3.94,10.34,1.5,3.26-2.44,3.94-7.08,1.5-10.35l-23.2-31.06Zm-53.52,8.22l-32.49-.4-9.66-31.02,26.52-18.77,26.04,19.42-10.42,30.77Zm94.34-23.97c-6.91-6.9-18.14-6.89-25.04.01-6.9,6.9-6.9,18.14,0,25.04,3.45,3.45,7.98,5.17,12.52,5.17s9.07-1.73,12.52-5.18c6.9-6.91,6.9-18.14,0-25.04Zm-8.54,16.5c-2.19,2.2-5.76,2.19-7.96,0-2.19-2.19-2.19-5.76,0-7.95,1.1-1.1,2.54-1.65,3.98-1.65s2.88.55,3.97,1.64c2.19,2.19,2.19,5.76,0,7.95Zm-74.09,65.58c-8.7-4.43-19.38-.95-23.81,7.75-4.43,8.7-.95,19.38,7.75,23.81,2.57,1.31,5.3,1.92,8,1.92,6.45,0,12.69-3.54,15.81-9.67,2.14-4.21,2.51-9.01,1.05-13.51-1.46-4.5-4.59-8.16-8.8-10.3Zm-3.02,18.33c-1.41,2.76-4.8,3.87-7.56,2.46-1.34-.68-2.33-1.84-2.79-3.27s-.35-2.95.33-4.29c.68-1.34,1.84-2.33,3.27-2.79.58-.19,1.16-.28,1.75-.28.87,0,1.74.21,2.54.61,2.76,1.41,3.86,4.8,2.46,7.56Zm-107.55-67.99c-4.67-.74-9.34.39-13.17,3.17-3.83,2.78-6.34,6.89-7.08,11.55-.74,4.67.39,9.34,3.17,13.17,2.78,3.83,6.89,6.34,11.55,7.08.93.15,1.86.22,2.77.22,8.55,0,16.1-6.23,17.48-14.94.74-4.66-.39-9.34-3.17-13.17-2.78-3.83-6.89-6.34-11.55-7.08Zm2.79,18.37h0c-.23,1.48-1.03,2.78-2.25,3.67-1.22.89-2.7,1.24-4.18,1.01-1.48-.23-2.78-1.03-3.67-2.25-.88-1.22-1.24-2.7-1.01-4.18.23-1.48,1.03-2.78,2.25-3.67.97-.71,2.12-1.08,3.3-1.08.29,0,.59.02.89.07,1.48.23,2.78,1.03,3.67,2.25.88,1.22,1.24,2.7,1.01,4.18Z"/>
</svg>