<?xml version="1.0" encoding="utf-8"?>
<!-- Generator: Adobe Illustrator 27.9.0, SVG Export Plug-In . SVG Version: 6.00 Build 0)  -->
<svg version="1.1" id="Layer_1" xmlns="http://www.w3.org/2000/svg" xmlns:xlink="http://www.w3.org/1999/xlink" x="0px" y="0px"
	 viewBox="0 0 714.4 213.4" style="enable-background:new 0 0 714.4 213.4;" xml:space="preserve">
<style type="text/css">
	.st0{fill:#FFFFFF;}
</style>
<g>
	<path class="st0" d="M36,153.8V68.6c5.1,2.9,9.9,5.7,14.6,8.4c12,6.9,24,13.9,36,20.8c1.8,1.1,2.7,2.2,2.7,4.4
		c-0.1,6.5-0.1,13.1-0.1,20.2c-11.3-6.3-22.3-12.4-34-19c0,4.5-0.2,8.4,0.1,12.3c0.1,1,1.8,2,2.9,2.7c9.5,5.5,19.2,10.9,28.7,16.5
		c0.9,0.5,2.1,1.6,2.1,2.4c0.2,5.9,0.1,11.9,0.1,18.6c-11.3-6.3-22.3-12.4-33.7-18.7c-0.2,1.2-0.3,1.9-0.3,2.7
		c0,7.5-0.1,15.1,0.1,22.6c0,1.4,0.9,3.3,2,3.9c8.7,5.3,17.6,10.4,26.5,15.4c5.6,3.1,12.9,1.9,17.1-2.9c1.1-1.3,1.9-3.2,2.2-4.9
		c0.8-5.6,1.3-11.2,2.1-16.8c0.1-0.8,0.4-2.1,1-2.4c5.8-2.7,11.7-5.2,18.2-8.1c-0.5,9.9-0.1,19.4-1.7,28.6
		c-3.7,21.5-28.5,33.1-47.6,22.4c-20.1-11.2-39.9-22.9-59.7-34.6c-10-5.9-14.9-14.9-15-26.6C0.2,117.7,0,99,0,80.3
		c0-4.9,0.2-9.9,0.7-14.8C2.2,48,17.2,35.3,34.8,36c7.8,0.3,14.2,3.8,20.6,7.5c17.1,9.9,34.1,19.8,51.2,29.6
		c11.4,6.6,17.1,16.4,17.1,29.5c0,8-0.1,15.9,0,23.9c0,2.5-0.8,4.2-3.1,5.4c-4.8,2.5-9.4,5.2-15.2,8.5c0-5.2,0.2-9.3,0-13.4
		c-0.4-8.4-0.4-16.9-1.6-25.2c-1.1-7.2-6.2-12.3-12.4-16C76.2,76.8,60.8,68,45.4,59.3c-2.5-1.4-5.3-2.5-8-3.7
		c-8.6-3.6-18.7,3-18.8,11.7c-0.3,21.5-0.2,43,0.5,64.5C19.5,140.9,27.1,149.7,36,153.8L36,153.8z"/>
	<path class="st0" d="M138.2,121.7c0-10.3,0.1-19.4,0-28.6c-0.2-11.6-4.8-21-14.9-27.1c-13.9-8.3-28-16.3-42.1-24.4
		c-8.3-4.7-16.6-9.3-25-13.7c-3.4-1.7-7.1-2.7-10.7-3.9c11.3-8.2,23.3-10,36-3c13.7,7.5,27.2,15.4,40.7,23.2
		c7.4,4.3,14.9,8.5,21.8,13.5c7.8,5.7,11.8,13.9,12,23.6c0.2,8.8,0.1,17.6-0.1,26.4c0,1.5-0.7,3.5-1.8,4.3
		C149.3,115.3,144.2,118.1,138.2,121.7L138.2,121.7z"/>
	<path class="st0" d="M168.1,103.8c-0.2-2.2-0.4-4-0.4-5.7c-0.2-9.5,0.1-19.1-0.8-28.5c-0.9-9.4-6.4-16.3-14.5-20.9
		c-22.3-12.8-44.7-25.4-67.1-38c-2.9-1.6-6.3-2.2-9.9-3.5c9.1-5.9,18.7-9.6,28.9-5.6c9.1,3.5,17.7,8.7,26.3,13.5
		c12.1,6.7,23.9,14,36,20.7c12.9,7.2,19.3,18,19.1,32.8c-0.1,6.3-0.1,12.7,0,19c0,3.9-1.1,7-4.9,8.9
		C176.5,98.7,172.6,101.2,168.1,103.8z"/>
	<path class="st0" d="M134.6,180.6c4.7-11.3,4-22.2,3.3-33.2c-0.1-2.3,0-4.7,0.5-7c0.2-1.2,1.1-2.7,2.1-3.4c4.8-2.9,9.7-5.6,15.6-9
		c0,3.6,0,6.4,0,9.2c0,9.1,0.9,18.3-3.4,26.9C148.8,171.7,142.7,176.6,134.6,180.6L134.6,180.6z"/>
	<path class="st0" d="M185.1,110.8c0.4,11.9,2,23-2.2,33.6c-3.4,8.5-10,13.8-18.8,18.1c3.7-8.6,3.8-16.9,3.6-25.2
		c-0.1-3.9-0.3-7.7-0.3-11.6c0-3.4,1.1-6,4.5-7.6C176.1,116.1,180.2,113.6,185.1,110.8z"/>
</g>
<g>
	<path class="st0" d="M397.6,97.9v24.8h-13.2V73.8c7.1-1.2,13.4-1.4,18,6.2c3.7,6.2,8.9,11.6,14.3,18.6V73.7h13.5v48.5
		c-7.8,2.3-11.4,1.2-16.2-5c-5-6.5-10.1-13-15.2-19.5C398.3,97.7,397.9,97.8,397.6,97.9L397.6,97.9z"/>
	<path class="st0" d="M297.8,106.1c3.6,5.3,7.1,10.6,11.3,16.8c-5.6,0-10.2,0.1-14.8-0.1c-1-0.1-2.1-1.2-2.8-2.1
		c-2.1-2.9-4.2-5.8-6-9c-1.8-3.3-4.1-4.4-8.2-2.9v13.9h-13.8V73.9c10,0,19.9-0.6,29.6,0.2c7.2,0.6,12.5,5,13.9,12.6
		c1.4,7.5-0.7,13.9-7.6,18.1C299,105.1,298.5,105.5,297.8,106.1L297.8,106.1z M277.6,96.8c3.9,0,7.5,0.6,10.7-0.2
		c2-0.5,4.4-3,4.9-5.1c0.8-3.1-1.7-5.3-4.7-5.7c-3.5-0.4-7-0.1-10.8-0.1L277.6,96.8L277.6,96.8z"/>
	<path class="st0" d="M439.3,123.3V72.9c9.6,0.5,19.2,0.2,28.4,1.8c12,2.2,18.6,11.6,18.5,23.5c-0.1,12-7.4,21.8-19.2,23.7
		C458,123.3,448.7,122.9,439.3,123.3L439.3,123.3z M453.2,110.2c8.6,1.2,14.2-0.6,17-5.6c2.6-4.6,2.5-9.3-0.5-13.7
		c-2.9-4.3-10-6.3-16.5-4.7V110.2z"/>
	<path class="st0" d="M376.9,122.7h-39.5v-49h39v11.6h-25.5v6.8h23.3v11.2h-23.3v7.5h26L376.9,122.7L376.9,122.7z"/>
	<path class="st0" d="M488.3,115.6c2.8-3.4,5.2-6.2,7.3-8.6c5,1.7,9.5,3.4,14.2,4.9c1.3,0.4,2.9,0.5,4.1,0c1.4-0.6,2.5-1.9,3.8-2.9
		c-1-1-1.9-2.6-3.1-3c-4.1-1.5-8.4-2.4-12.5-3.8c-8.7-2.9-11.7-7.3-11-15.6c0.5-6.8,5.8-12.1,13.6-13.4c9.3-1.5,18-0.2,26.1,6
		c-2.3,3.2-4.5,6.3-6.3,8.9c-5.2-1.3-9.9-2.7-14.7-3.4c-1.4-0.2-3,1.4-4.6,2.2c1.2,1.2,2.1,3.1,3.5,3.6c4.2,1.6,8.7,2.4,13,3.9
		c7.2,2.5,10.7,7.3,10.4,13.9c-0.3,7.1-4.7,12.7-11.9,14.4C508.5,125.5,498.2,123.2,488.3,115.6L488.3,115.6z"/>
	<path class="st0" d="M232,85.5v8.3h22.9v11.5h-23v17.3h-13.7v-49H257v11.9H232z"/>
	<path class="st0" d="M700.8,96.6c2.5,3.5,6.3,6.6,7.4,10.5c2.1,7.3-3,14.3-11.3,15.1c-9.1,0.8-18.3,0.2-27.8,0.2V73.8
		c8.6,0,17.1-0.4,25.6,0.2c5.2,0.3,9.5,3.4,10.9,8.9s-0.4,10.1-5.1,13.5c-0.3,0.2-0.6,0.6-0.8,1C700,97.1,700.4,96.9,700.8,96.6
		L700.8,96.6z M674.7,101.2v16.4c6.7,0,13.1,0.2,19.5-0.1c4.8-0.2,8.2-3.8,8.5-8c0.3-4.2-2.5-7.7-7.8-8.2
		C688.2,100.7,681.5,101.2,674.7,101.2L674.7,101.2z M674.6,95.8c6.6-0.4,12.7-0.4,18.7-1.1c4.2-0.5,6.5-3.5,6.6-7.8
		c0.1-4.3-2.5-7.2-6.2-7.5c-6.2-0.6-12.6-0.2-19-0.2L674.6,95.8L674.6,95.8z"/>
	<path class="st0" d="M601.1,122.7h-5.1v-21.5h-28.2v21.4h-5.7v-49c1.5-0.1,3.2-0.2,5.4-0.3v21.3h28.2v-21c2.1-0.2,3.6-0.3,5.4-0.4
		L601.1,122.7L601.1,122.7z"/>
	<path class="st0" d="M327.9,122.7h-13.3v-49h13.3C327.9,73.7,327.9,122.7,327.9,122.7z"/>
	<path class="st0" d="M614.5,73.6c2-0.1,3.5-0.2,5.7-0.2c0,8-0.1,15.8,0,23.5c0.1,3.7,0.2,7.5,1,11.1c1.7,7.2,7,10.7,14.7,10.3
		c7.2-0.3,12.7-4.3,13.4-11.4c0.8-8.1,0.5-16.2,0.6-24.3c0-2.8,0-5.6,0-8.8h6.4c-0.5,11.9-0.6,23.8-1.6,35.5
		c-0.6,7-6.6,12.3-13.6,13.8c-16,3.3-26.5-4.9-26.7-21.2C614.4,92.5,614.5,83.2,614.5,73.6L614.5,73.6z"/>
	<path class="st0" d="M544.7,109.3h5.9v7.3h-5.9C544.7,116.7,544.7,109.3,544.7,109.3z"/>
	<path class="st0" d="M550.7,80.4v7.3h-6.2v-7C546.5,80.6,548.4,80.5,550.7,80.4z"/>
</g>
</svg>
