<?xml version="1.0" encoding="UTF-8"?>
<svg id="Layer_1" data-name="Layer 1" xmlns="http://www.w3.org/2000/svg" viewBox="0 0 708.66 257.15">
  <defs>
    <style>
      .cls-1 {
        fill: #fefefe;
        stroke-width: 0px;
      }
    </style>
  </defs>
  <g>
    <path class="cls-1" d="m223.63,83.73c.32.39.71.6,1.18.66.46.05.97-.08,1.53-.4.5-.29.84-.61,1.04-.99.19-.38.25-.72.16-1.05-.09-.32-.51-1.15-1.28-2.47l-.84-1.45-3.88,2.24.96,1.66c.57.99.95,1.6,1.12,1.81Z"/>
    <polygon class="cls-1" points="185.38 201.42 185.53 201.61 185.45 201.37 185.38 201.42"/>
    <path class="cls-1" d="m51.83,192.83c-.34-.21-.74-.28-1.19-.22-.45.07-.92.31-1.41.72-.47.4-.77.81-.91,1.23-.13.42-.12.84.03,1.24.11.28.61.96,1.5,2.02l1.56,1.86,3.76-3.15-1.48-1.76c-.9-1.07-1.52-1.72-1.87-1.93Z"/>
    <polygon class="cls-1" points="33.03 122.14 33.4 117.97 26.06 119.45 33.03 122.14"/>
    <path class="cls-1" d="m207.13,61.19c.39.16.83.18,1.31.05.49-.12.96-.41,1.41-.85.46-.44.76-.91.9-1.4.14-.49.13-.92-.02-1.3-.15-.37-.65-.99-1.49-1.87l-.98-1.02-3.95,3.81,1.11,1.15c.75.78,1.31,1.24,1.7,1.41Z"/>
    <polygon class="cls-1" points="187.83 217.56 185.43 210.52 182.18 212.71 187.83 217.56"/>
    <path class="cls-1" d="m216.94,88.66c.28.22.66.33,1.12.33.46,0,.95-.16,1.49-.47.55-.32.94-.68,1.17-1.1.23-.42.32-.84.25-1.26-.07-.43-.41-1.18-1.04-2.25l-1.17-2.03-4.48,2.59,1.35,2.33c.59,1.02,1.03,1.64,1.31,1.86Z"/>
    <polygon class="cls-1" points="33.06 167.38 40.5 166.61 38.93 162.73 33.06 167.38"/>
    <path class="cls-1" d="m65.04,50.94c.21-.34.28-.74.22-1.19-.07-.45-.31-.92-.72-1.41-.4-.47-.81-.77-1.23-.91-.42-.13-.84-.12-1.24.03-.28.11-.96.61-2.02,1.5l-1.86,1.56,3.15,3.76,1.76-1.48c1.07-.9,1.72-1.52,1.93-1.87Z"/>
    <path class="cls-1" d="m76.55,213.98c-.44-.08-.88,0-1.34.23-.46.23-.85.61-1.19,1.15-.34.54-.51,1.08-.52,1.59,0,.52.13.95.39,1.29.26.34.94.85,2.04,1.53l1.28.8,2.91-4.65-1.45-.91c-.97-.61-1.68-.95-2.12-1.03Z"/>
    <path class="cls-1" d="m148.51,221.96c-.08-.66-.28-1.18-.59-1.55-.32-.37-.71-.6-1.18-.7-.33-.07-1.28,0-2.82.19l-2.7.33.65,5.29,2.56-.31c1.56-.19,2.55-.38,2.96-.57.41-.19.72-.51.94-.96.21-.45.28-1.03.19-1.71Z"/>
    <path class="cls-1" d="m110.91,218.86c-.4-.27-1.3-.57-2.71-.92l-1.64-.41-1.44,5.78,1.87.46c1.25.31,2.12.44,2.62.38.49-.06.94-.29,1.34-.68.4-.39.69-.91.85-1.58.17-.67.16-1.29-.02-1.82-.18-.54-.47-.94-.87-1.21Z"/>
    <path class="cls-1" d="m215.75,43.98c-21.65-21.65-51.56-35.04-84.59-35.04s-62.94,13.39-84.59,35.04c-21.65,21.65-35.04,51.56-35.04,84.59s13.39,62.94,35.04,84.59c21.65,21.65,51.56,35.04,84.59,35.04s62.94-13.39,84.59-35.04c21.65-21.65,35.04-51.56,35.04-84.59s-13.39-62.94-35.04-84.59Zm23.95,65.87l-8.49,1.34,9.41,4.46.61,3.86-8.29-4.17-10.78,7.48-.59-3.71,8.35-5.33-3.56-1.82-5.78.92-.45-2.86,19.12-3.03.45,2.86Zm1.61,18.45v2.89h-19.35v-2.89h19.35Zm-2.64-24.63l-18.78,4.68-.7-2.81,18.78-4.68.7,2.81Zm-3.47-11.1l-15.24,4.66,2.11,6.9-3.12.95-2.96-9.67,18.36-5.61.85,2.77Zm-5.56-13.69c.78,1.36,1.2,2.39,1.24,3.11.05.71-.17,1.45-.64,2.24-.47.78-1.15,1.42-2.02,1.93-.81.47-1.63.73-2.47.78-.84.05-1.57-.09-2.18-.43.14.91-.03,1.77-.49,2.59-.46.82-1.19,1.53-2.2,2.11-1.22.7-2.41,1.03-3.55.99-1.15-.04-2.03-.37-2.65-.98-.43-.43-1.17-1.56-2.23-3.39l-2.45-4.24,16.76-9.68,2.88,4.98Zm-10.94-17.31l1.66,2.37-8.59,6.01c-1.34.94-2.18,1.57-2.55,1.91-.63.59-.99,1.22-1.1,1.89-.1.66.07,1.32.52,1.96.38.55.83.9,1.35,1.06.51.16,1.05.13,1.62-.08.57-.21,1.64-.86,3.22-1.97l8.77-6.14,1.67,2.38-8.33,5.83c-2.13,1.49-3.74,2.46-4.83,2.92-1.09.46-2.18.53-3.28.22-1.1-.31-2.06-1.06-2.88-2.24-.86-1.23-1.29-2.36-1.28-3.39,0-1.03.34-2.01,1-2.94.66-.93,2.18-2.22,4.56-3.88l8.46-5.92Zm-6.86-7.77c1.21,1.25,1.93,2.13,2.17,2.65.38.82.41,1.77.09,2.84-.32,1.08-1.03,2.15-2.14,3.22-1.01.97-2.02,1.61-3.03,1.93-1.01.31-1.91.34-2.68.09-.77-.25-1.77-1-2.99-2.27l-1.32-1.37-5.25,5.07-2.01-2.08,13.92-13.44,3.24,3.36Zm-5.53-5.82l-2.11,2.51-5.96-5-2.76,3.29,5.53,4.64-2.09,2.5-5.53-4.64-3.39,4.04,6.16,5.17-2.1,2.5-8.37-7.03,12.44-14.83,8.17,6.86Zm-21.41-15.64l5.18,3.24c1.33.83,2.18,1.57,2.56,2.22.38.65.53,1.45.44,2.41-.09.96-.45,1.94-1.09,2.96-.8,1.28-1.73,2.15-2.77,2.58-1.05.43-2.15.43-3.3-.01.26.75.42,1.48.45,2.19.04.71-.05,1.9-.26,3.55l-.52,4.13-2.93-1.83.45-4.69c.16-1.69.23-2.77.21-3.24-.03-.47-.13-.84-.31-1.13-.18-.28-.55-.6-1.12-.96l-.51-.32-4.28,6.85-2.45-1.53,10.26-16.41Zm-82.19,7.87c.16-.65.82-1.04,1.47-.88.26.06.47.21.63.39.73.76,1.61,1.4,2.67,1.9.81.38,1.73.68,2.78.89.2-1.57.51-3.29,1.11-5.06.77-2.29,2-4.64,4.04-6.77.42-.44,1.11-.49,1.59-.14h0c1.65,1.22,2.95,2.39,4,3.52.34.37.66.74.95,1.1,1.56-6.3,3.14-12.59,8.5-16.41.44-.32,1.03-.29,1.44.03,5.33,3.81,6.9,10.09,8.46,16.38.29-.36.61-.73.95-1.1,1.05-1.13,2.35-2.3,4-3.52.52-.38,1.24-.29,1.65.2,2.01,2.12,3.22,4.44,3.98,6.71.59,1.77.91,3.49,1.1,5.06,1.05-.21,1.97-.51,2.78-.89,1.08-.51,1.98-1.17,2.71-1.95.46-.49,1.22-.51,1.71-.05.17.16.29.37.34.58h0c1.16,4.52,1.09,8.55.21,12.27,10.92,4.12,20.73,10.5,28.83,18.6,14.71,14.71,23.81,35.03,23.81,57.48s-9.1,42.76-23.81,57.48c-14.71,14.71-35.03,23.81-57.48,23.81s-42.76-9.1-57.48-23.81c-14.71-14.71-23.81-35.03-23.81-57.48s9.1-42.76,23.81-57.48c8.1-8.1,17.91-14.49,28.83-18.6-.88-3.72-.95-7.75.21-12.27Zm-32.76-3.14l5.71,8.79c.89,1.37,1.49,2.24,1.83,2.61.58.64,1.21,1.02,1.9,1.13.68.11,1.38-.06,2.09-.52.6-.39,1-.85,1.2-1.37.2-.52.21-1.07.03-1.66-.18-.58-.79-1.68-1.84-3.29l-5.83-8.98,2.6-1.69,5.54,8.53c1.41,2.18,2.32,3.83,2.73,4.94.4,1.12.41,2.23.01,3.34-.4,1.12-1.24,2.09-2.53,2.93-1.34.87-2.55,1.3-3.63,1.29-1.07,0-2.07-.36-3-1.04-.93-.68-2.18-2.24-3.75-4.67l-5.62-8.66,2.59-1.68Zm-11.23,8.73c1.28-1.07,2.3-1.7,3.08-1.9.77-.19,1.61-.11,2.51.25.91.36,1.74,1,2.51,1.92.97,1.16,1.49,2.32,1.55,3.48.05,1.16-.34,2.25-1.17,3.26.83-.05,1.59.01,2.3.18.71.17,1.84.59,3.39,1.27l3.85,1.7-2.82,2.37-4.43-1.78c-1.59-.65-2.63-1.02-3.1-1.13-.47-.11-.87-.11-1.21-.02-.34.1-.78.38-1.33.83l-.49.41,5.19,6.19-2.37,1.98-12.44-14.83,4.99-4.19Zm-15.73,16.63l8.26,6.45c1.29,1,2.14,1.63,2.58,1.87.76.42,1.48.57,2.16.45.68-.12,1.28-.51,1.8-1.17.44-.56.67-1.13.69-1.68.02-.56-.15-1.08-.51-1.57-.36-.49-1.3-1.33-2.82-2.51l-8.44-6.59,1.91-2.44,8.01,6.26c2.05,1.6,3.44,2.86,4.19,3.78.75.93,1.12,1.98,1.1,3.16-.01,1.19-.49,2.38-1.44,3.59-.98,1.26-1.99,2.06-3.01,2.4-1.02.34-2.08.34-3.18,0-1.1-.34-2.79-1.41-5.07-3.19l-8.13-6.36,1.9-2.43Zm-8.22,12.82c.91-1.58,2.07-2.61,3.45-3.09,1.39-.47,2.96-.38,4.74.29l-.9,3.01c-.98-.3-1.85-.32-2.61-.05-.76.26-1.36.77-1.78,1.5-.66,1.14-.73,2.33-.22,3.57.51,1.24,1.71,2.4,3.59,3.49,2.02,1.16,3.78,1.67,5.27,1.51,1.29-.13,2.26-.76,2.9-1.88.3-.52.49-1.14.56-1.85.07-.71,0-1.41-.17-2.11l-2.13-1.23-1.77,3.07-2.83-1.63,3.34-5.78,6.68,3.86c.38.99.51,2.17.4,3.53-.1,1.36-.47,2.58-1.09,3.66-.76,1.31-1.76,2.28-3,2.89-1.25.62-2.71.84-4.37.65-1.67-.18-3.4-.79-5.2-1.83-1.85-1.07-3.25-2.27-4.22-3.62-.97-1.35-1.5-2.68-1.61-4-.1-1.32.23-2.64.99-3.96Zm-10.9,28.15l14.11-2.72-12.48-3.34.75-2.79,18.69,5.01-.81,3.01-13.79,2.7,12.19,3.27-.75,2.78-18.69-5.01.78-2.91Zm-2.18,13.97l19.82-4.43-.29,3.35-4.5.95-.53,6.1,4.27,1.64-.29,3.28-18.76-7.63.29-3.27Zm0,22.78l10.46-.73c1.63-.11,2.68-.22,3.17-.33.84-.19,1.48-.57,1.91-1.11.43-.54.61-1.24.55-2.08-.05-.71-.26-1.28-.62-1.71-.36-.42-.84-.7-1.44-.83-.59-.12-1.85-.12-3.78.02l-10.68.75-.22-3.09,10.14-.71c2.59-.18,4.47-.18,5.64,0,1.17.19,2.15.72,2.93,1.61.79.89,1.23,2.1,1.33,3.64.11,1.59-.1,2.86-.63,3.8-.53.94-1.32,1.64-2.36,2.12-1.05.48-3.01.82-5.9,1.02l-10.3.72-.22-3.08Zm.93,8l3.19-.74,1.02,4.43,15.67-3.62.69,3.01-15.67,3.62,1.02,4.44-3.19.74-2.74-11.87Zm5.62,19.35l15.65-12.94,1.26,3.12-3.57,2.89,2.29,5.68,4.55-.48,1.23,3.05-20.18,1.71-1.23-3.04Zm15.21,19.28c-.93.5-1.88.74-2.84.73-.96-.02-1.83-.28-2.59-.8-.76-.52-1.43-1.31-1.99-2.37-.85-1.59-1.06-3.07-.64-4.44.41-1.37,1.44-2.52,3.08-3.46l1.6,2.65c-.85.61-1.36,1.21-1.51,1.8-.15.59-.03,1.25.36,1.99.39.73.85,1.22,1.38,1.45.53.23,1.03.22,1.51-.03.47-.25.76-.64.89-1.17.13-.53.03-1.55-.27-3.05-.32-1.6-.41-2.82-.28-3.67.13-.85.47-1.63,1.01-2.34.55-.71,1.33-1.33,2.36-1.88,1.48-.79,2.96-1.01,4.44-.67,1.48.35,2.72,1.46,3.72,3.33,1.76,3.32.8,6.21-2.91,8.66l-1.75-2.49c2.03-1.46,2.6-3.03,1.71-4.7-.44-.82-1.01-1.35-1.71-1.59-.7-.24-1.38-.18-2.04.17-.39.21-.68.46-.86.77-.19.31-.27.68-.27,1.11,0,.43.15,1.4.42,2.92.25,1.36.31,2.42.17,3.19-.14.77-.47,1.5-1,2.19-.53.69-1.19,1.24-1.99,1.67Zm3.24,12.36c-1.07-1.28-1.7-2.3-1.9-3.08-.19-.77-.11-1.61.25-2.51.36-.91,1-1.74,1.92-2.51,1.16-.97,2.32-1.49,3.48-1.55,1.16-.05,2.25.34,3.26,1.17-.05-.83.01-1.59.18-2.3.17-.71.59-1.84,1.27-3.39l1.7-3.85,2.37,2.82-1.78,4.43c-.65,1.59-1.02,2.63-1.13,3.1-.11.47-.11.87-.02,1.21.1.34.37.78.83,1.33l.41.49,6.19-5.19,1.98,2.37-14.83,12.44-4.19-4.99Zm8.04,8.54l2.23-2.4,6.07,5.66,2.93-3.14-5.64-5.26,2.22-2.38,5.64,5.26,3.59-3.85-6.27-5.85,2.22-2.39,8.53,7.95-13.2,14.15-8.33-7.76Zm23.35,17.3l-4.22-2.64c-1.57-.98-2.55-1.71-2.94-2.16-.61-.73-.91-1.67-.9-2.81.02-1.14.43-2.37,1.25-3.67.74-1.19,1.58-2.05,2.52-2.58.93-.53,1.83-.75,2.68-.67.85.08,2.07.61,3.66,1.61l1.72,1.08,3.87-6.19,2.62,1.64-10.26,16.41Zm37.21-2.27c-.37,1.48-.96,2.64-1.76,3.5-.8.86-1.68,1.38-2.61,1.58-.93.2-2.42.04-4.46-.47l-2.21-.55-1.92,7.69-3.37-.84,5.08-20.39,5.43,1.35c2.02.5,3.32.93,3.89,1.28.91.56,1.56,1.44,1.95,2.63.39,1.19.38,2.6-.02,4.22Zm7.57,10.18c.75,1.21,1.85,1.88,3.29,2,.68.06,1.39-.04,2.15-.29.75-.26,1.44-.64,2.06-1.14l.23-2.66-3.97-.35.31-3.53,7.47.65-.73,8.34c-.83.82-1.96,1.49-3.4,2.01-1.44.52-2.85.71-4.24.59-1.69-.15-3.15-.69-4.37-1.64-1.22-.95-2.14-2.28-2.75-4.01-.61-1.73-.82-3.71-.62-5.96.2-2.31.76-4.24,1.67-5.81.91-1.57,2.01-2.71,3.3-3.41,1.29-.7,2.8-.98,4.5-.83,2.05.18,3.64.84,4.79,2,1.14,1.15,1.8,2.75,1.97,4.8l-3.49.48c-.16-1.1-.56-1.96-1.2-2.59-.63-.63-1.43-.99-2.38-1.07-1.47-.13-2.72.34-3.73,1.41-1.02,1.07-1.62,2.78-1.83,5.13-.22,2.52.1,4.48.98,5.88Zm28.28,3.7l-3.06-4.23c-1.1-1.53-1.84-2.48-2.21-2.85-.37-.37-.75-.61-1.13-.73-.38-.11-.97-.12-1.76-.02l-.71.09,1.07,8.71-3.44.42-2.56-20.86,7.27-.89c1.86-.23,3.21-.2,4.06.07.84.28,1.58.85,2.2,1.71.63.86,1.02,1.94,1.18,3.23.2,1.63-.03,3-.69,4.09-.66,1.09-1.7,1.85-3.11,2.28.8.44,1.49.95,2.04,1.52.56.57,1.36,1.62,2.4,3.15l2.57,3.81-4.11.5Zm8.85-2.09l-5.79-20.2,3.33-.96,5.79,20.2-3.33.96Zm37.03-17.63l-11.5-15.27,6.08,18.85-2.55,1.72-15.59-12.83,2.62-1.76,3.5,2.94,4.76-3.21-1.48-4.31,2.56-1.73.03.09,2.25-1.69,11.65,15.46-2.31,1.74Zm11.39-10.05c-.24.84-.75,1.66-1.55,2.46-1.19,1.19-2.48,1.77-3.87,1.72-1.39-.04-2.77-.71-4.14-2.01l1.93-2.17c.83.64,1.53.96,2.13.96.59,0,1.16-.29,1.71-.84.55-.55.85-1.11.89-1.66.04-.55-.12-1.02-.5-1.4-.37-.37-.82-.55-1.35-.53-.53.01-1.43.36-2.71,1.03-1.36.7-2.46,1.1-3.28,1.19-.82.1-1.65-.02-2.46-.36-.82-.33-1.64-.91-2.46-1.73-1.19-1.19-1.85-2.52-2-3.99-.15-1.47.49-2.91,1.89-4.32,2.49-2.49,5.44-2.31,8.85.53l-1.74,2.27c-1.97-1.52-3.59-1.66-4.84-.41-.62.62-.93,1.28-.92,2,0,.71.27,1.33.8,1.86.31.31.64.52.98.61.34.1.71.08,1.11-.03.39-.11,1.24-.49,2.55-1.14,1.17-.58,2.12-.91,2.87-.97.75-.07,1.52.06,2.32.38.8.32,1.51.8,2.16,1.44.75.75,1.26,1.57,1.56,2.48.29.91.32,1.78.08,2.63Zm3.75-3.54l-2.51-2.11,5-5.96-3.29-2.76-4.64,5.53-2.5-2.09,4.64-5.53-4.04-3.39-5.17,6.16-2.5-2.1,7.03-8.37,14.83,12.44-6.86,8.17Zm14.29-19.42l-14.11-1.61,11.08,6.66-1.39,2.32-16.59-9.97,1.5-2.5,13.8,1.54-10.82-6.5,1.39-2.32,16.59,9.97-1.45,2.42Zm6.21-11.21c-.87,1.86-2.36,3.02-4.48,3.46-2.12.44-4.63-.02-7.53-1.37-2.93-1.37-4.94-3.06-6.01-5.07-.95-1.77-.99-3.59-.12-5.46.88-1.89,2.3-3.04,4.25-3.46,2.23-.47,4.79-.04,7.67,1.3,2.09.98,3.68,2.05,4.77,3.25,1.09,1.19,1.76,2.39,2,3.6.24,1.21.06,2.46-.54,3.75Zm5.26-16.33c-.37,1.29-.81,2.21-1.31,2.78-.5.56-1.21,1.01-2.13,1.35-.91.34-2.01.49-3.3.46-1.29-.03-2.83-.3-4.61-.81-1.61-.46-2.96-1.03-4.06-1.7-1.09-.67-1.91-1.36-2.46-2.07-.55-.7-.89-1.46-1.04-2.28-.15-.82-.06-1.79.26-2.92l1.5-5.24,18.6,5.33-1.46,5.09Zm2.32-12.27l-.38,2.68-19.17-2.69.41-2.89,13.3-3.97-12.5-1.76.38-2.68,19.17,2.69-.39,2.8-13.62,4.03,12.8,1.8Z"/>
    <path class="cls-1" d="m149.32,137.58c.42.42.79.83,1.12,1.25h11.04c-.33-.42-.69-.83-1.12-1.25h-11.04Z"/>
    <path class="cls-1" d="m160.36,147.12c.42-.42.78-.83,1.11-1.25h-11.04c-.33.42-.69.83-1.11,1.25h11.04Z"/>
    <path class="cls-1" d="m162.28,140.34h-11.04c.13.42.23.83.3,1.25h11.04c-.06-.42-.16-.83-.3-1.25Z"/>
    <path class="cls-1" d="m151.24,144.36h11.03c.13-.42.23-.83.3-1.25h-11.04c-.06.42-.16.83-.3,1.25Z"/>
    <path class="cls-1" d="m112.86,143.11h-11.03c-.06.42-.16.83-.3,1.25h11.03c.13-.42.23-.83.3-1.25Z"/>
    <path class="cls-1" d="m177.85,130.84c.42-.12.83-.21,1.25-.26v-9.75c-.42.06-.83.14-1.25.26v9.75Z"/>
    <path class="cls-1" d="m177.85,116.2c.42-.12.83-.21,1.25-.26v-9.75c-.42.06-.83.14-1.25.26v9.75Z"/>
    <path class="cls-1" d="m184.62,152.07c-.42-.37-.83-.7-1.25-.98v9.74c.42.28.83.61,1.25.98v-9.74Z"/>
    <path class="cls-1" d="m181.86,106.46c-.42-.12-.83-.21-1.25-.26v9.75c.42.06.83.14,1.25.26v-9.75Z"/>
    <path class="cls-1" d="m184.62,137.43c-.42-.37-.83-.69-1.25-.98v9.75c.42.28.83.61,1.25.98v-9.75Z"/>
    <path class="cls-1" d="m177.85,145.48c.42-.12.83-.21,1.25-.26v-9.75c-.42.06-.83.15-1.25.26v9.75Z"/>
    <path class="cls-1" d="m184.62,122.79c-.42-.37-.83-.69-1.25-.98v9.75c.42.28.83.61,1.25.98v-9.75Z"/>
    <path class="cls-1" d="m181.86,121.09c-.42-.12-.83-.21-1.25-.26v9.75c.42.06.83.14,1.25.26v-9.75Z"/>
    <path class="cls-1" d="m184.62,108.15c-.42-.37-.83-.69-1.25-.98v9.75c.42.29.83.61,1.25.98v-9.75Z"/>
    <path class="cls-1" d="m112.85,141.6c-.06-.42-.16-.83-.3-1.25h-11.03c.13.42.23.83.3,1.25h11.03Z"/>
    <path class="cls-1" d="m175.09,117.9c.42-.37.83-.7,1.25-.99v-9.75c-.42.29-.83.61-1.25.98v9.75Z"/>
    <path class="cls-1" d="m177.85,160.12c.42-.12.83-.21,1.25-.26v-9.74c-.42.06-.83.14-1.25.26v9.74Z"/>
    <path class="cls-1" d="m175.09,132.54c.42-.37.83-.7,1.25-.98v-9.75c-.42.29-.83.61-1.25.98v9.75Z"/>
    <path class="cls-1" d="m181.86,150.37c-.42-.12-.83-.21-1.25-.26v9.74c.42.06.83.14,1.25.26v-9.74Z"/>
    <path class="cls-1" d="m181.86,135.73c-.42-.12-.83-.21-1.25-.26v9.75c.42.06.83.14,1.25.26v-9.75Z"/>
    <path class="cls-1" d="m175.09,161.81c.42-.36.83-.69,1.25-.97v-9.74c-.42.28-.83.61-1.25.97v9.74Z"/>
    <path class="cls-1" d="m175.09,147.18c.42-.37.83-.7,1.25-.98v-9.75c-.42.29-.83.61-1.25.98v9.75Z"/>
    <path class="cls-1" d="m84.46,135.73c-.42-.12-.83-.21-1.25-.26v9.75c.42.06.83.14,1.25.26v-9.75Z"/>
    <path class="cls-1" d="m84.46,106.46c-.42-.12-.83-.21-1.25-.26v9.75c.42.06.83.14,1.25.26v-9.75Z"/>
    <path class="cls-1" d="m87.22,137.43c-.42-.37-.83-.69-1.25-.98v9.75c.42.28.83.61,1.25.98v-9.75Z"/>
    <path class="cls-1" d="m84.46,121.09c-.42-.12-.83-.21-1.25-.26v9.75c.42.06.83.14,1.25.26v-9.75Z"/>
    <path class="cls-1" d="m87.22,152.07c-.42-.37-.83-.7-1.25-.98v9.74c.42.28.83.61,1.25.98v-9.74Z"/>
    <path class="cls-1" d="m115.01,69.56c5.71-2.27,11.27-3.42,16.67-3.42s10.6,1.14,15.66,3.38c3.58-4.59,7.09-9.21,9.06-14.38,1.41-4.36,1.82-9.18,1.27-12.37-.55.39-1.15.75-1.81,1.06-1.34.63-2.91,1.08-4.73,1.3h0s-.02,0-.02,0c-.66.07-1.26-.42-1.32-1.08-.18-1.75-.45-3.77-1.14-5.8-.57-1.71-1.44-3.45-2.77-5.07-1.11.88-2.03,1.73-2.79,2.56-.94,1.01-1.65,1.99-2.21,2.93h0c-.16.26-.41.47-.73.55-.65.17-1.3-.22-1.47-.87-.24-.93-.44-1.71-.63-2.49-1.39-5.59-2.77-11.18-6.88-14.57-4.1,3.39-5.49,8.98-6.88,14.57-.19.78-.39,1.56-.63,2.49-.08.3-.27.56-.55.73-.57.34-1.31.16-1.66-.42-.56-.94-1.27-1.91-2.21-2.93-.77-.82-1.68-1.67-2.79-2.56-1.34,1.62-2.2,3.35-2.77,5.07-.67,2.01-.95,4-1.13,5.73,0,.03,0,.07,0,.1-.08.66-.68,1.14-1.34,1.06-1.83-.22-3.39-.67-4.73-1.3-.65-.31-1.26-.66-1.81-1.06-.56,3.18-.14,8.74,1.27,12.37,1.98,5.18,5.5,9.81,9.1,14.42Z"/>
    <path class="cls-1" d="m111.44,103.54c-.14.15-.3.28-.43.44-.52.62-.93,1.32-1.21,2.06-.27.7-.42,1.44-.42,2.17s.14,1.34.38,1.88c.25.55.62,1.02,1.07,1.39.45.37,1,.63,1.61.78.5.12,4.42.16,5,.13-.12-2.82.47-5.1.38-7.92-.68-.1-5.43-.75-6.11-.86-.09-.02-.18-.04-.28-.06Z"/>
    <path class="cls-1" d="m53.5,128.58c0,21.44,8.69,40.85,22.75,54.91,14.05,14.05,33.47,22.75,54.91,22.75s40.85-8.69,54.91-22.75c14.05-14.05,22.75-33.47,22.75-54.91s-8.69-40.85-22.75-54.91c-7.69-7.69-16.99-13.76-27.34-17.69-2.11,5.5-5.84,10.36-9.61,15.2,0,3.52-.02,7.03-.06,10.55,3.18,1.01,5.95,2.49,7.68,4.68.78.98,1.42,2.06,1.85,3.19.42,1.09.65,2.22.65,3.38s-.24,2.29-.65,3.38c-.44,1.14-1.08,2.21-1.85,3.19-.83,1.04-1.8,2-2.87,2.73-.18.12-.37.23-.56.34.62.78,1.14,1.65,1.49,2.58.37.97.58,2,.58,3.03s-.22,2.03-.6,2.88c-.02.04-.03.07-.05.1-.41.86-1,1.6-1.72,2.17-.73.59-1.6,1.01-2.55,1.24-.73.18-1.51.25-2.32.21-.22,5.11-.46,10.22-.74,15.33-.09,1.66-.2,3.32-.3,4.99h17.28c1.72,2.41,2.91,4.81,2.91,7.22s-1.19,4.82-2.91,7.23h-18.2c-.05.66-.09,1.33-.14,1.99h18.33c1.72,2.41,2.91,4.81,2.91,7.22s-1.19,4.82-2.91,7.23h-19.39c-.59,7.72-1.21,15.43-1.87,23.13-.3,3.5-1.48,6.74-3.66,9.03-1.96,2.06-4.69,3.33-8.27,3.33s-6.31-1.28-8.27-3.33c-2.18-2.29-3.36-5.53-3.66-9.03-.66-7.71-1.28-15.42-1.87-23.13h-22.3c1.72-2.41,2.9-4.81,2.9-7.23,0-2.42-1.18-4.82-2.9-7.22h21.24c-.05-.66-.09-1.33-.14-1.99h-21.11c1.72-2.41,2.9-4.81,2.9-7.23,0-2.42-1.18-4.82-2.9-7.22h20.19c-.1-1.66-.21-3.32-.3-4.99-.28-5.11-.52-10.22-.74-15.33-.81.04-1.59-.03-2.33-.21-.95-.23-1.81-.65-2.55-1.24-.75-.6-1.35-1.37-1.76-2.28-.39-.85-.6-1.82-.6-2.88s.2-2.06.58-3.03c.35-.92.86-1.79,1.49-2.57-.19-.11-.38-.22-.57-.35-1.08-.72-2.04-1.68-2.87-2.73-.77-.98-1.41-2.05-1.85-3.19h0s0,0,0,0c-.41-1.08-.65-2.21-.65-3.38s.24-2.29.65-3.38c.44-1.14,1.07-2.21,1.85-3.19,1.73-2.19,4.51-3.67,7.69-4.68-.04-3.51-.06-7.03-.06-10.54-3.78-4.84-7.51-9.7-9.61-15.2-10.35,3.93-19.65,10-27.34,17.69-14.05,14.05-22.75,33.47-22.75,54.91Zm119.13,6.66v-30.62c2.41-1.52,4.81-2.57,7.22-2.57s4.82,1.05,7.23,2.57v61.21c-2.41-1.52-4.81-2.56-7.23-2.56-2.42,0-4.82,1.05-7.22,2.56v-30.6Zm-82.95-30.62v61.21c-2.41-1.52-4.81-2.56-7.23-2.56-2.42,0-4.82,1.05-7.22,2.56v-61.21c2.41-1.52,4.81-2.57,7.22-2.57s4.82,1.05,7.23,2.57Z"/>
    <path class="cls-1" d="m150.87,103.54c-.09.02-.19.05-.28.06-.68.11-4.19.61-4.88.71-.09,2.82-.32,5.25-.44,8.07.58.03,4.09,0,4.59-.13.61-.15,1.16-.41,1.61-.78.43-.35.79-.79,1.04-1.31.01-.03.02-.06.03-.08.25-.55.39-1.18.39-1.87s-.15-1.47-.42-2.17c-.28-.74-.7-1.44-1.22-2.06-.13-.16-.29-.29-.43-.44Z"/>
    <path class="cls-1" d="m131.68,68.56c-4.9,0-10.87,1.3-16.05,3.28,0,2.25.02,6.96.04,9.21.71-.17,1.43-.32,2.16-.46,4.83-.87,9.91-1,13.32-1,3.41,0,8.49.13,13.32,1,.73.13,1.45.29,2.17.46.02-2.25.24-7.23.25-9.47-4.57-1.95-10.37-3.02-15.21-3.02Zm-15.81,3.87c-.05-.18-.1-.32-.16-.44.06.11.11.26.16.44Zm30.85-.53c.02-.06.05-.12.08-.18-.03.05-.05.11-.08.18Zm-.06.15s.03-.09.05-.14c-.02.04-.03.09-.05.14Z"/>
    <path class="cls-1" d="m155.61,96.92c.28-.47.53-.95.72-1.44.31-.8.48-1.65.48-2.51s-.17-1.7-.48-2.51c-.35-.91-.86-1.77-1.49-2.56-1.28-1.62-3.37-2.8-5.82-3.66-.84-.21-4.1-1.11-4.97-1.27-4.65-.84-9.58-.97-12.89-.97s-8.24.12-12.89.96c-.87.16-4.13,1.06-4.96,1.27-2.45.86-4.54,2.03-5.82,3.66-.63.8-1.14,1.66-1.49,2.55-.31.8-.48,1.65-.48,2.52s.18,1.7.49,2.52h0c.34.9.86,1.76,1.49,2.56.67.85,1.46,1.63,2.33,2.21.34.23.69.42,1.05.58,0,.08,5.26.9,5.26.97,1.84.25,3.68.47,5.52.63,3.17.28,6.35.44,9.52.44,3.17,0,6.35-.15,9.52-.43,1.84-.16,3.68-.38,5.53-.63,2.11-.15,3.81-.51,5.17-1.04.03.02.06.04.09.06.36-.16.71-.35,1.04-.58,0,0,0,0,0,0,1.64-.87,2.63-2.03,3.11-3.33Zm-45.48-.57c-.49.09-.96-.24-1.05-.74l-.75-4.25c-.09-.49.24-.96.74-1.05.49-.09.96.24,1.05.74l.75,4.25c.09.49-.24.96-.74,1.05Zm10.59-2.98c-.5.06-.95-.29-1.01-.79l-.52-4.28c-.06-.5.29-.95.79-1.01.5-.06.95.29,1.01.79l.53,4.28c.06.5-.29.95-.79,1.01Zm6.94-1.05c-.5.03-.93-.36-.95-.86l-.22-4.31c-.03-.5.36-.93.86-.95.5-.03.93.36.95.86l.22,4.31c.03.5-.36.93-.86.95Zm7.94-.86c-.02.5-.45.89-.95.86-.5-.02-.89-.45-.86-.95l.22-4.31c.02-.5.45-.89.95-.86.5.02.89.45.86.95l-.22,4.31Zm7,1.12c-.06.5-.51.85-1.01.79-.5-.06-.85-.51-.79-1.01l.53-4.28c.06-.5.51-.85,1.01-.79.5.06.85.51.79,1.01l-.53,4.28Z"/>
    <path class="cls-1" d="m110.64,163.56c.42-.42.79-.83,1.11-1.25h-11.03c-.32.42-.69.83-1.11,1.25h11.03Z"/>
    <path class="cls-1" d="m99.61,154.02c.41.42.78.83,1.1,1.25h11.03c-.32-.42-.69-.83-1.1-1.25h-11.03Z"/>
    <path class="cls-1" d="m87.22,108.15c-.42-.37-.83-.69-1.25-.98v9.75c.42.29.83.61,1.25.98v-9.75Z"/>
    <path class="cls-1" d="m87.22,122.79c-.42-.37-.83-.69-1.25-.98v9.75c.42.28.83.61,1.25.98v-9.75Z"/>
    <path class="cls-1" d="m81.7,135.47c-.42.06-.83.15-1.25.26v9.75c.42-.12.83-.21,1.25-.26v-9.75Z"/>
    <path class="cls-1" d="m81.7,150.11c-.42.06-.83.14-1.25.26v9.74c.42-.12.83-.21,1.25-.26v-9.74Z"/>
    <path class="cls-1" d="m84.46,150.37c-.42-.12-.83-.21-1.25-.26v9.74c.42.06.83.14,1.25.26v-9.74Z"/>
    <path class="cls-1" d="m78.94,121.81c-.42.29-.83.61-1.25.98v9.75c.42-.37.83-.7,1.25-.98v-9.75Z"/>
    <path class="cls-1" d="m78.94,107.16c-.42.29-.83.61-1.25.98v9.75c.42-.37.83-.7,1.25-.99v-9.75Z"/>
    <path class="cls-1" d="m81.7,106.19c-.42.06-.83.14-1.25.26v9.75c.42-.12.83-.21,1.25-.26v-9.75Z"/>
    <path class="cls-1" d="m81.7,120.83c-.42.06-.83.14-1.25.26v9.75c.42-.12.83-.21,1.25-.26v-9.75Z"/>
    <path class="cls-1" d="m78.94,151.09c-.42.28-.83.61-1.25.97v9.74c.42-.36.83-.69,1.25-.97v-9.74Z"/>
    <path class="cls-1" d="m149.32,154.02c.42.42.79.83,1.12,1.25h11.04c-.33-.42-.69-.83-1.12-1.25h-11.04Z"/>
    <path class="cls-1" d="m162.28,156.78h-11.04c.13.42.23.83.3,1.25h11.04c-.06-.42-.16-.83-.3-1.25Z"/>
    <path class="cls-1" d="m151.24,160.8h11.03c.13-.42.23-.83.3-1.25h-11.04c-.06.42-.16.83-.3,1.25Z"/>
    <path class="cls-1" d="m160.36,163.56c.42-.42.78-.83,1.11-1.25h-11.04c-.33.42-.69.83-1.11,1.25h11.04Z"/>
    <path class="cls-1" d="m110.64,147.12c.42-.42.79-.83,1.11-1.25h-11.03c-.32.42-.69.83-1.11,1.25h11.03Z"/>
    <path class="cls-1" d="m99.61,137.58c.41.42.78.83,1.1,1.25h11.03c-.32-.42-.69-.83-1.1-1.25h-11.03Z"/>
    <path class="cls-1" d="m78.94,136.45c-.42.29-.83.61-1.25.98v9.75c.42-.37.83-.7,1.25-.98v-9.75Z"/>
    <path class="cls-1" d="m112.86,159.55h-11.03c-.06.42-.16.83-.3,1.25h11.03c.13-.42.23-.83.3-1.25Z"/>
    <path class="cls-1" d="m112.85,158.04c-.06-.42-.16-.83-.3-1.25h-11.03c.13.42.23.83.3,1.25h11.03Z"/>
    <path class="cls-1" d="m225.3,164.82c-2.02-.94-3.69-1.3-5.02-1.08-1.33.22-2.24.85-2.72,1.88-.48,1.03-.38,2.12.31,3.27.68,1.15,2.06,2.2,4.14,3.17,2.03.95,3.69,1.32,4.98,1.11,1.28-.21,2.17-.84,2.67-1.91.5-1.07.42-2.17-.25-3.3-.67-1.13-2.03-2.18-4.09-3.14Z"/>
    <path class="cls-1" d="m222.81,154.93c.3.37.84.75,1.6,1.15.76.4,1.81.79,3.14,1.17,1.38.4,2.49.62,3.34.68.84.05,1.55-.03,2.11-.27.56-.23.99-.59,1.28-1.07.23-.36.49-1.1.81-2.22l.36-1.27-12.32-3.53-.6,2.1c-.26.89-.35,1.57-.28,2.03.07.46.26.87.56,1.23Z"/>
    <path class="cls-1" d="m187.09,43.14c.37.08.75.02,1.15-.19.39-.21.76-.59,1.1-1.13.33-.52.49-1,.5-1.44,0-.44-.11-.81-.36-1.14-.18-.23-.82-.68-1.92-1.37l-1.93-1.2-2.6,4.16,1.83,1.14c1.11.7,1.86,1.09,2.23,1.17Z"/>
    <path class="cls-1" d="m131.16,0C60.16,0,2.58,57.58,2.58,128.58s57.58,128.58,128.58,128.58,128.58-57.58,128.58-128.58S202.16,0,131.16,0Zm87.16,215.74c-22.31,22.31-53.13,36.11-87.16,36.11s-64.85-13.8-87.16-36.11c-22.31-22.31-36.11-53.13-36.11-87.16S21.69,63.72,44,41.41C66.3,19.11,97.12,5.3,131.16,5.3s64.85,13.8,87.16,36.11c22.31,22.31,36.11,53.13,36.11,87.16s-13.8,64.85-36.11,87.16Z"/>
    <path class="cls-1" d="m142.56,104.68c.39.16.64.56.57.99l-.53,2.85c-.09.49-.56.82-1.05.73-.49-.09-.82-.56-.73-1.05l.53-2.85c.04-.24.18-.45.37-.58-.28.03-.55.06-.83.08-1.69.15-3.39.26-5.08.34l-.19,2.53c-.04.5-.47.88-.97.84-.5-.04-.88-.47-.84-.97l.18-2.34c-.94.03-1.88.04-2.82.04-.94,0-1.87-.02-2.81-.04l.18,2.34c.04.5-.34.94-.84.97-.5.04-.94-.34-.97-.84l-.19-2.53c-1.7-.08-3.4-.19-5.09-.34-.27-.02-.55-.06-.82-.08.19.13.33.33.37.58l.53,2.85c.09.49-.24.96-.73,1.05-.49.09-.96-.24-1.05-.73l-.53-2.85c-.08-.43.17-.83.57-.99-1.19-.12-2.38-.26-3.56-.41.08,2.31.18,4.62.27,6.94,0,0,0,0,0,0,0,.14.01.29.02.43,0,.17.01.34.02.51,0,0,0,0,0,0,.22,5.19.57,13.02.84,17.87.09,1.7.21,3.41.31,5.12.59,7.64,3.32,46.18,3.98,53.83.25,2.97,1.22,5.69,3,7.56,1.52,1.59,3.67,2.58,6.52,2.58s5-.99,6.52-2.58c1.78-1.87,2.75-4.58,3-7.56.66-7.65,3.39-46.19,3.98-53.83.1-1.71.22-3.41.31-5.12.26-4.76.62-12.64.84-17.87,0,0,0,0,0,0,0-.22.02-.43.03-.65,0-.19.02-.39.02-.57,0,0,0,0,0,0,.09-2.22.19-4.44.26-6.66-1.18.16-2.37.29-3.56.41Zm-18.57,75.53c-.5.03-.93-.36-.95-.86l-3-55.23c-.03-.5.36-.93.86-.95.5-.03.93.36.95.86l3,55.23c.03.5-.36.93-.86.95Zm4.77,0c-.5.02-.92-.38-.93-.88l-1.75-54.98c-.02-.5.38-.92.88-.93.5-.02.92.38.93.88l1.75,54.98c.02.5-.38.92-.88.93Zm4.54-.92c-.02.5-.43.89-.93.88-.5-.02-.89-.43-.88-.93l1.75-54.98c.02-.5.43-.89.93-.88s.89.43.88.93l-1.75,54.98Zm4.79.1c-.03.5-.45.88-.95.86-.5-.03-.88-.45-.86-.95l3-55.23c.03-.5.45-.88.95-.86.5.03.88.45.86.95l-3,55.23Z"/>
  </g>
  <g>
    <path class="cls-1" d="m297.16,192.47v-127.6h51.72c9.85,0,18.47,1.44,25.86,4.33,7.39,2.88,13.16,7.57,17.3,14.06,4.14,6.49,6.22,15.26,6.22,26.31,0,10.21-2.22,18.74-6.67,25.59-4.45,6.85-10.51,11.93-18.2,15.23-7.69,3.31-16.46,4.96-26.31,4.96h-20.73v37.13h-29.2Zm29.2-63.08h20.73c6.85,0,12.28-1.68,16.31-5.05,4.02-3.36,6.04-8.29,6.04-14.78,0-5.77-1.71-10.15-5.14-13.16-3.42-3-9.04-4.51-16.85-4.51h-21.09v37.49Z"/>
    <path class="cls-1" d="m473.05,193.91c-12.74,0-23.76-2.7-33.07-8.11-9.31-5.41-16.46-13-21.45-22.8-4.99-9.79-7.48-21.36-7.48-34.69,0-9.97,1.41-18.92,4.24-26.85,2.82-7.93,6.94-14.75,12.35-20.46,5.41-5.71,11.92-10.09,19.55-13.16,7.63-3.06,16.25-4.6,25.86-4.6s18.59,1.62,26.58,4.87c7.99,3.24,14.6,8.14,19.82,14.69,5.23,6.55,8.62,14.81,10.18,24.78h-29.2c-.84-3.84-2.41-7-4.69-9.46-2.28-2.46-5.17-4.29-8.65-5.5-3.49-1.2-7.51-1.8-12.08-1.8-6.25,0-11.53,1.08-15.86,3.24-4.33,2.16-7.81,5.08-10.45,8.74-2.64,3.67-4.57,7.78-5.77,12.35-1.2,4.57-1.8,9.25-1.8,14.06,0,6.37,1.11,12.41,3.33,18.11,2.22,5.71,5.77,10.3,10.63,13.79,4.87,3.49,11.32,5.23,19.37,5.23,4.69,0,9.01-.66,12.98-1.98,3.96-1.32,7.21-3.39,9.73-6.22,2.52-2.82,4.02-6.34,4.51-10.54h-32.44v-24.87h62.9v5.95c0,13.7-2.16,25.41-6.49,35.14-4.33,9.73-10.84,17.18-19.55,22.35-8.71,5.17-19.73,7.75-33.07,7.75Z"/>
    <path class="cls-1" d="m550.73,192.47v-127.6h52.63c6.01,0,11.98.57,17.93,1.71,5.95,1.14,11.38,3.22,16.31,6.22,4.93,3,8.86,7.24,11.8,12.71,2.94,5.47,4.42,12.47,4.42,21,0,5.77-.96,11.11-2.88,16.04-1.92,4.93-4.78,9.19-8.56,12.8-3.78,3.6-8.56,6.43-14.33,8.47l29.02,48.66h-33.16l-24.69-43.97h-19.28v43.97h-29.2Zm29.2-69.75h22.53c3.48,0,6.58-.33,9.28-.99,2.7-.66,5.01-1.62,6.94-2.88,1.92-1.26,3.39-2.91,4.42-4.96,1.02-2.04,1.59-4.51,1.71-7.39,0-3.96-.93-6.97-2.79-9.01-1.86-2.04-4.36-3.48-7.48-4.33-3.13-.84-6.73-1.26-10.81-1.26h-23.79v30.82Z"/>
    <path class="cls-1" d="m676.88,192.47v-127.6h29.2v127.6h-29.2Z"/>
  </g>
</svg>
