<?xml version="1.0" encoding="UTF-8"?>
<svg id="Layer_1" data-name="Layer 1" xmlns="http://www.w3.org/2000/svg" viewBox="0 0 355.62 250">
  <defs>
    <style>
      .cls-1 {
        fill: #fefefe;
        stroke-width: 0px;
      }
    </style>
  </defs>
  <g>
    <path class="cls-1" d="m5.48,141.56v-46.31l-1.69-8.55,1.69-5.08h27.09c4.12,0,7.83.64,11.13,1.9,3.3,1.27,5.93,3.42,7.87,6.43,1.95,3.02,2.92,7.18,2.92,12.49s-1.05,9.5-3.13,12.57c-2.09,3.08-4.98,5.26-8.68,6.56-3.7,1.3-7.92,1.95-12.66,1.95h-9.31v4.4l.85,8.47-.85,5.16H5.48Zm15.24-31.33h8.3c2.93,0,5.28-.55,7.03-1.65,1.75-1.1,2.62-3.15,2.62-6.14,0-2.09-.42-3.65-1.27-4.7-.85-1.04-2.02-1.74-3.51-2.07-1.5-.34-3.23-.51-5.21-.51h-8.81l.85,15.07Z"/>
    <path class="cls-1" d="m94.21,142.41c-4.35,0-8.45-.44-12.32-1.31-3.87-.87-7.28-2.44-10.24-4.7-2.96-2.26-5.29-5.39-6.98-9.4-1.69-4.01-2.54-9.14-2.54-15.41s.9-11.05,2.71-15.03c1.81-3.98,4.22-7.13,7.24-9.44,3.02-2.31,6.38-3.95,10.07-4.91,3.7-.96,7.44-1.44,11.22-1.44,2.76,0,5.16.14,7.2.42,2.03.28,3.98.65,5.84,1.1l11.51,6.69-5.93,13.12-18.71-6.6c-2.71,0-5.21.54-7.49,1.61-2.29,1.07-4.12,2.78-5.5,5.12-1.38,2.34-2.07,5.49-2.07,9.44,0,6.38,1.43,10.85,4.28,13.42,2.85,2.57,6.76,3.85,11.73,3.85,2.54,0,4.53-.13,5.97-.38s2.55-.47,3.34-.64v-6.43h-10.75v-12.53h26.92l.93,5.08-1.86,7.03v17.78c-.62.23-2.02.62-4.19,1.18-2.17.57-5,1.1-8.47,1.61-3.47.51-7.44.76-11.9.76Z"/>
    <path class="cls-1" d="m130.78,141.56v-46.31l-1.69-8.55,1.69-5.08h27.09c4.12,0,7.83.64,11.13,1.9,3.3,1.27,5.93,3.42,7.87,6.43,1.95,3.02,2.92,7.18,2.92,12.49,0,4.8-.88,8.68-2.62,11.64-1.75,2.96-4.18,5.18-7.28,6.65l.85.93,8.38,10.5,4.83,4.32v5.08h-19.05l-11.85-18.03h-7.03v4.4l.85,8.47-.85,5.16h-15.24Zm15.24-31.33h8.3c2.93,0,5.28-.55,7.03-1.65,1.75-1.1,2.62-3.15,2.62-6.14,0-2.09-.42-3.65-1.27-4.7-.85-1.04-2.02-1.74-3.51-2.07-1.5-.34-3.23-.51-5.21-.51h-8.81l.85,15.07Z"/>
    <path class="cls-1" d="m190.72,141.56v-46.4l-.85-8.47.85-5.08h15.32v59.94h-15.32Z"/>
    <path class="cls-1" d="m24.95,209.08c-3.1,0-6.04-.3-8.8-.89-2.77-.59-5.16-1.31-7.2-2.16-2.03-.85-3.53-1.64-4.49-2.37v-15.15c2.71,1.52,6.12,2.95,10.24,4.28,4.12,1.33,8.69,1.99,13.72,1.99,2.03,0,3.54-.27,4.53-.8.99-.54,1.48-1.48,1.48-2.84,0-1.47-1.12-2.69-3.34-3.68-2.23-.99-5.74-2.21-10.54-3.68-3.73-1.18-6.9-2.5-9.52-3.94-2.62-1.44-4.63-3.24-6.01-5.42-1.38-2.17-2.07-4.95-2.07-8.34s.9-6.66,2.71-9.48c1.81-2.82,4.63-5.05,8.47-6.69,3.84-1.64,8.75-2.45,14.73-2.45,1.81,0,3.74.07,5.8.21,2.06.14,3.71.32,4.95.55l9.57,7.03-3.3,10.33-20.06-5.5c-2.31,0-4.02.48-5.12,1.44-1.1.96-1.65,2.12-1.65,3.47,0,1.64.93,2.94,2.79,3.89,1.86.96,4.54,1.92,8.04,2.88,5.53,1.52,9.82,3.22,12.87,5.08s5.19,3.97,6.43,6.31c1.24,2.34,1.86,4.98,1.86,7.92,0,5.42-2.17,9.78-6.52,13.08-4.35,3.3-10.87,4.95-19.56,4.95Z"/>
    <path class="cls-1" d="m85.65,209.08c-8.69,0-15.23-1.99-19.6-5.97-4.37-3.98-6.56-10.37-6.56-19.18v-22.01l.08-8.55-.08-5.08h15.41v33.95c0,3.95.79,7.15,2.37,9.61,1.58,2.45,4.37,3.68,8.38,3.68s6.84-1.14,8.51-3.43c1.66-2.29,2.5-5.57,2.5-9.86v-33.95h15.15v35.64c0,8.64-2.13,14.99-6.39,19.05-4.26,4.06-10.85,6.1-19.77,6.1Z"/>
    <path class="cls-1" d="m123.67,208.23v-46.31l-1.69-8.47,1.78-5.08h16.17l16.59,32.17h1.69l13.72-32.17h16.85l.85,5.08-.85,8.13v46.65h-15.32l.25-7.2v-23.62h-.93l-3.39,8.13-7.62,14.22h-10.16l-11.68-22.35h-.85v6.86l.85,23.96h-16.26Z"/>
    <path class="cls-1" d="m201.47,208.23v-46.31l-1.69-8.47,1.78-5.08h16.17l16.59,32.17h1.69l13.72-32.17h16.85l.85,5.08-.85,8.13v46.65h-15.32l.25-7.2v-23.62h-.93l-3.39,8.13-7.62,14.22h-10.16l-11.68-22.35h-.85v6.86l.85,23.96h-16.26Z"/>
    <path class="cls-1" d="m278.43,208.23v-46.4l-.85-8.47.85-5.08h15.32v59.94h-15.32Z"/>
    <path class="cls-1" d="m317.46,208.23v-46.4l-16.93.85v-14.39h49.53v14.39l-17.35-.85v32.85l.93,8.47-.93,5.08h-15.24Z"/>
    <path class="cls-1" d="m0,247.19v-4.03c1.13-.76,2.14-1.45,3.03-2.07.89-.62,1.8-1.29,2.75-2.03.95-.74,1.79-1.47,2.53-2.18,1.6-1.5,2.79-2.84,3.58-4.03.79-1.18,1.18-2.49,1.18-3.92,0-.96-.3-1.72-.9-2.27-.6-.55-1.59-.83-2.97-.83-1.03,0-2.08.11-3.14.33s-2.04.5-2.96.83c-.91.33-1.69.67-2.33,1.02v-5.17c.25-.12.74-.35,1.5-.68.75-.33,1.74-.65,2.97-.94,1.23-.3,2.68-.44,4.36-.44,3.13,0,5.45.67,6.96,2.01,1.51,1.34,2.27,3.25,2.27,5.71,0,1.53-.31,2.94-.94,4.25-.63,1.3-1.45,2.5-2.48,3.58-1.02,1.09-2.12,2.07-3.29,2.96-1.17.89-2.3,1.68-3.38,2.36l.18.74,9.9-.74v5.54H0Z"/>
    <path class="cls-1" d="m29.93,221.04v27.36h4.05v-27.36h-4.05Z"/>
    <path class="cls-1" d="m55.34,247.56c-2.09,0-3.91-.43-5.45-1.29-1.54-.86-2.73-2.27-3.56-4.23-.84-1.96-1.26-4.6-1.26-7.92s.42-5.75,1.26-7.72c.84-1.97,2.03-3.42,3.56-4.34,1.54-.92,3.36-1.39,5.45-1.39s3.94.47,5.47,1.4c1.53.94,2.71,2.39,3.55,4.36.84,1.97,1.26,4.53,1.26,7.68s-.42,5.9-1.26,7.87-2.02,3.39-3.55,4.27c-1.53.87-3.35,1.31-5.47,1.31Zm0-5.32c1.7,0,2.92-.61,3.66-1.83.74-1.22,1.11-3.32,1.11-6.3,0-2.81-.37-4.86-1.11-6.17-.74-1.31-1.96-1.96-3.66-1.96s-2.86.66-3.62,1.98c-.76,1.32-1.14,3.37-1.14,6.15,0,2.96.38,5.05,1.14,6.28s1.97,1.85,3.62,1.85Z"/>
    <path class="cls-1" d="m76.69,221.04v27.36h4.07v-27.36h-4.07Z"/>
    <path class="cls-1" d="m91.66,247.19v-4.03c1.13-.76,2.14-1.45,3.03-2.07.89-.62,1.8-1.29,2.75-2.03.95-.74,1.79-1.47,2.53-2.18,1.6-1.5,2.79-2.84,3.58-4.03.79-1.18,1.18-2.49,1.18-3.92,0-.96-.3-1.72-.9-2.27-.6-.55-1.59-.83-2.97-.83-1.03,0-2.08.11-3.14.33s-2.04.5-2.96.83c-.91.33-1.69.67-2.33,1.02v-5.17c.25-.12.74-.35,1.5-.68.75-.33,1.74-.65,2.97-.94,1.23-.3,2.68-.44,4.36-.44,3.13,0,5.45.67,6.96,2.01,1.51,1.34,2.27,3.25,2.27,5.71,0,1.53-.31,2.94-.94,4.25-.63,1.3-1.45,2.5-2.48,3.58-1.02,1.09-2.12,2.07-3.29,2.96-1.17.89-2.3,1.68-3.38,2.36l.18.74,9.9-.74v5.54h-18.84Z"/>
    <path class="cls-1" d="m121.59,221.04v27.36h4.05v-27.36h-4.05Z"/>
    <path class="cls-1" d="m145.85,247.56c-.94,0-1.74-.03-2.42-.08s-1.36-.12-2.05-.22l-4.65-1.7,1.48-5.14,6.54,2.03c1.7,0,3-.31,3.9-.94.9-.63,1.35-1.53,1.35-2.71,0-1.11-.31-1.99-.92-2.66-.62-.67-1.8-1-3.55-1h-7.68v-14.11h16.44v5.14l-9.24-.37h-1.55v5.03h2.48c3.42,0,5.91.65,7.46,1.96,1.55,1.31,2.33,3.24,2.33,5.8,0,1.75-.39,3.3-1.16,4.65-.78,1.35-1.9,2.41-3.38,3.18-1.48.76-3.26,1.15-5.36,1.15Z"/>
  </g>
  <g>
    <path class="cls-1" d="m303.15,113.89c-5.2-2.65-11.58-.57-14.23,4.63-2.65,5.2-.57,11.58,4.63,14.23,1.53.78,3.17,1.15,4.78,1.15,3.86,0,7.58-2.11,9.45-5.78,1.28-2.51,1.5-5.38.63-8.07-.87-2.69-2.74-4.88-5.26-6.16Zm-1.8,10.95c-.84,1.65-2.87,2.31-4.52,1.47-.8-.41-1.39-1.1-1.67-1.96s-.21-1.77.2-2.56c.41-.8,1.1-1.39,1.95-1.67.34-.11.7-.17,1.05-.17.52,0,1.04.12,1.52.37,1.65.84,2.31,2.87,1.47,4.52Z"/>
    <path class="cls-1" d="m237.09,84.22c-2.79-.44-5.58.23-7.87,1.9-2.29,1.66-3.79,4.12-4.23,6.9-.44,2.79.23,5.58,1.9,7.87,1.66,2.29,4.11,3.79,6.9,4.23.56.09,1.11.13,1.66.13,5.11,0,9.62-3.72,10.44-8.93.44-2.79-.23-5.58-1.9-7.87-1.66-2.29-4.11-3.79-6.9-4.23Zm1.67,10.97h0c-.14.88-.62,1.66-1.34,2.19-.73.53-1.61.74-2.5.6-.88-.14-1.66-.62-2.19-1.34-.53-.73-.74-1.61-.6-2.5s.62-1.66,1.34-2.19c.58-.42,1.27-.64,1.97-.64.18,0,.35.01.53.04.88.14,1.66.62,2.19,1.34s.74,1.61.6,2.5Z"/>
    <path class="cls-1" d="m237.03,34.54c1.83,1.33,3.98,2.02,6.19,2.02.56,0,1.12-.04,1.68-.13,2.79-.44,5.24-1.95,6.9-4.24,1.66-2.29,2.33-5.08,1.89-7.87-.44-2.79-1.95-5.24-4.24-6.9-2.29-1.66-5.08-2.34-7.87-1.89-2.79.44-5.24,1.95-6.9,4.24-1.66,2.29-2.33,5.08-1.89,7.87.44,2.79,1.95,5.24,4.24,6.9Zm5.69-11.88c.18-.03.35-.04.53-.04,1.62,0,3.05,1.18,3.32,2.83.29,1.83-.96,3.56-2.79,3.85-.88.14-1.77-.07-2.5-.6-.73-.53-1.21-1.31-1.35-2.19-.29-1.83.96-3.56,2.79-3.85Z"/>
    <path class="cls-1" d="m307.72,22.23c1.08.35,2.18.52,3.28.52,1.65,0,3.28-.39,4.79-1.16,5.2-2.65,7.27-9.03,4.62-14.23-2.65-5.19-9.03-7.27-14.23-4.62-5.2,2.65-7.27,9.03-4.62,14.23,1.28,2.51,3.47,4.38,6.16,5.25Zm.07-11.09c.28-.86.87-1.55,1.67-1.96.8-.41,1.71-.48,2.56-.2.85.28,1.55.87,1.96,1.67.41.8.48,1.71.2,2.56-.28.86-.87,1.55-1.67,1.96-.8.41-1.7.48-2.56.2-.85-.28-1.55-.87-1.96-1.67-.41-.8-.48-1.71-.2-2.56Z"/>
    <path class="cls-1" d="m328.13,74.27l14.45-29.43c.83-1.7.49-3.73-.84-5.07-1.34-1.34-3.38-1.67-5.07-.84l-29.42,14.48-17.28-12.89-2.76-19.13,16.16,15.69c1.2,1.16,2.92,1.55,4.5,1.01l24.5-8.32c2.3-.78,3.54-3.3,2.76-5.6-.78-2.3-3.3-3.54-5.6-2.76l-21.94,7.45-23.52-22.84c-1.36-1.32-3.4-1.63-5.08-.77-1.68.86-2.63,2.69-2.36,4.56l4.68,32.45-17.6,12.45-19.05-3.29,19.92-10.52c1.47-.78,2.38-2.3,2.35-3.96l-.34-25.87c-.03-2.43-2.06-4.36-4.48-4.36-2.43.03-4.39,2.04-4.36,4.47l.31,23.17-28.99,15.31c-1.67.88-2.6,2.73-2.3,4.6.3,1.87,1.75,3.34,3.61,3.66l32.31,5.58,6.41,20.58-9.02,17.1-3.85-22.2c-.28-1.64-1.45-2.97-3.04-3.46l-24.71-7.67c-2.32-.72-4.8.58-5.53,2.91-.72,2.33.58,4.8,2.91,5.53l22.12,6.87,5.61,32.3c.32,1.86,1.79,3.31,3.66,3.61,1.87.3,3.71-.63,4.59-2.3l15.29-29,21.56.27,13.48,13.86-22.3-3.2c-1.65-.24-3.27.46-4.23,1.82l-14.93,21.13c-1.4,1.99-.93,4.75,1.06,6.15.77.55,1.66.81,2.54.81,1.39,0,2.75-.65,3.61-1.87l13.37-18.92,32.45,4.65c1.86.27,3.7-.68,4.56-2.37.86-1.69.55-3.73-.77-5.08l-22.86-23.5,6.92-20.42,17.35-8.54-9.93,20.22c-.73,1.5-.57,3.25.43,4.59l15.48,20.73c1.46,1.95,4.23,2.35,6.18.9,1.95-1.46,2.35-4.23.89-6.18l-13.86-18.56Zm-41.31-25.08l15.56,11.6-6.23,18.39-19.41-.24-5.77-18.54,15.85-11.22Z"/>
    <path class="cls-1" d="m352.52,64.85c-4.13-4.12-10.84-4.12-14.96,0-4.12,4.13-4.12,10.84,0,14.96,2.06,2.06,4.77,3.09,7.48,3.09s5.42-1.03,7.48-3.1c4.12-4.13,4.12-10.84,0-14.96Zm-5.1,9.86c-1.31,1.31-3.44,1.31-4.75,0-1.31-1.31-1.31-3.44,0-4.75.66-.66,1.52-.98,2.38-.98s1.72.33,2.37.98c1.31,1.31,1.31,3.44,0,4.75Z"/>
  </g>
</svg>
