<?xml version="1.0" encoding="UTF-8"?>
<svg id="Layer_1" data-name="Layer 1" xmlns="http://www.w3.org/2000/svg" viewBox="0 0 708.66 221.1">
  <defs>
    <style>
      .cls-1 {
        fill: #fefefe;
        stroke-width: 0px;
      }
    </style>
  </defs>
  <g id="g8791">
    <path id="path8793" class="cls-1" d="m703.64,125.47c.56-3.4,1.33-9.68,1.33-16.67,0-33.11-16.52-66.9-60.21-66.9-1.42,0-2.8,0-4.13.16-43.81,2.16-64.07,38.38-64.07,71.33,0,39.55,23.21,65.15,64.07,68.07,2.61.23,5.38.28,8.11.28,18.1,0,34.91-2.82,48.83-8.53l-5.67-28.15c-11.21,3.88-22.73,5.71-37.16,5.71-5,0-9.72-.41-14.12-1.55-13.08-3.08-23.02-11.06-24.04-24.07l24.04.11,63.01.23Zm-88.68-28.77c1.07-10.58,9.41-25.65,25.67-27.03l2.43-.14c18.76,0,23.25,17.18,23.25,27.17h-51.34Z"/>
  </g>
  <g id="g8795">
    <path id="path8797" class="cls-1" d="m523.94,42.19c-22.5,0-35.85,12.82-41.27,21.62h-.85l-1.98-18.61h-36.04c.53,12,1.06,25.95,1.06,42.67v91.04h41.57v-77.93c0-3.69.25-7.54,1.29-10.28,3.16-7.7,9.89-15.65,21.43-15.65,15.17,0,21.06,11.66,21.06,29.04v74.83h41.61v-78.9c0-39.5-20.48-57.82-47.87-57.82"/>
  </g>
  <g id="g8799">
    <path id="path8801" class="cls-1" d="m21.51,19.99v25.23H3.69v30.69h17.82v54.94c0,18.84,3.81,31.73,11.44,39.69,6.91,6.72,18.06,11.58,31.51,11.58,11.44,0,21.55-1.79,26.84-3.74l-.26-31.43c-3.86.89-6.55,1.15-12.33,1.15-12.35,0-16.49-7.4-16.49-23.55v-48.65h28.87l37.66,103h41.61l49.72-133.7h-43.75l-17.24,62.12c-2.94,11.4-5.2,21.67-7.39,32.52h-.83c-2.09-10.69-4.37-21.26-7.58-32.52l-18.21-62.12h-62.87V8.75l-40.7,11.24Z"/>
  </g>
  <path class="cls-1" d="m420.21,53.88l-53.74,143.39h-52.99l53.75-142.98h-32.96l54.07-34.39c.07.04.2.13.27.17-13.38-9.35-28.91-15.85-45.72-18.54-.31-.05-.62-.1-.94-.15-.06,0-.11-.01-.17-.02-3.38-.53-6.83-.82-10.31-1.03.93.05,1.87.06,2.8.13-1.28-.11-2.57-.18-3.87-.24-.42-.02-.82-.12-1.24-.13h-.07c-.26-.01-.54-.02-.81-.02-.07-.01-.12,0-.17,0-.23-.01-.47-.02-.69-.02-.1-.01-.2-.02-.3-.02h-.98c-.17-.01-.31-.02-.47-.02h-.5c-22.71.06-43.83,6.98-61.38,18.81-2.28,1.54-4.49,3.14-6.64,4.84-.46.37-.89.77-1.35,1.14,0,0-.01.01-.02.02-.89.73-1.76,1.48-2.63,2.23-.01,0-.03.01-.04.02-.74.64-1.51,1.25-2.23,1.91-.86.79-1.66,1.64-2.5,2.46-.06.06-.11.11-.17.17-.9.88-1.8,1.76-2.67,2.67-.03.03-.06.06-.09.09-2.07,2.18-4.06,4.43-5.95,6.78-.02.02-.04.05-.06.07-.96,1.19-1.85,2.43-2.76,3.66-.05.07-.1.14-.15.21-.61.83-1.26,1.62-1.84,2.46-.29.41-.53.86-.81,1.28-.02.03-.05.06-.07.09-1.03,1.53-2.01,3.08-2.97,4.66-.03.04-.05.09-.07.13-.61,1.02-1.18,2.07-1.76,3.12-.07.13-.15.26-.23.39-1.67,3.02-3.19,6.11-4.58,9.29-.02.04-.04.09-.06.13-.4.93-.86,1.84-1.24,2.78l-.04.19-.02.04c-3.18,7.96-5.56,16.33-6.81,25.08v.04c-.13.85-.24,1.72-.34,2.57,0,.02-.02.01-.02.04-.02.24-.04.5-.07.75-.01.06-.02.12-.04.17-.01.23-.03.45-.06.68-.01.05,0,.12-.02.17-.05.55-.11,1.09-.15,1.63-.01.07,0,.15-.02.21-.02.2-.03.4-.06.6,0,.09-.02.18-.02.26-.01.19-.03.4-.06.6v.21c-.05.55-.08,1.09-.11,1.63,0,.07,0,.15-.02.23-.01.19-.02.4-.04.6v.26c-.01.19,0,.39-.02.58v.24c-.02.54-.06,1.07-.07,1.61v.26c-.01.19,0,.38,0,.56v.88c-.01.09-.02.15-.02.23v.83c0,61.03,49.49,110.54,110.45,110.54s110.52-49.51,110.52-110.54c0-20.73-5.73-40.11-15.67-56.68Z"/>
</svg>