<?xml version="1.0" encoding="UTF-8"?>
<svg id="Layer_1" data-name="Layer 1" xmlns="http://www.w3.org/2000/svg" viewBox="0 0 355.62 425.25">
  <defs>
    <style>
      .cls-1 {
        fill: #fefefe;
        stroke-width: 0px;
      }
    </style>
  </defs>
  <g>
    <path class="cls-1" d="m7.8,314v-46.51l-1.7-8.59,1.7-5.1h27.21c4.14,0,7.87.64,11.18,1.91,3.32,1.28,5.95,3.43,7.91,6.46,1.96,3.03,2.93,7.21,2.93,12.54s-1.05,9.54-3.15,12.63c-2.1,3.09-5,5.29-8.72,6.59-3.71,1.3-7.95,1.96-12.71,1.96h-9.35v4.42l.85,8.5-.85,5.19H7.8Zm15.31-31.46h8.33c2.95,0,5.3-.55,7.06-1.66,1.76-1.11,2.64-3.16,2.64-6.17,0-2.1-.42-3.67-1.28-4.72-.85-1.05-2.03-1.74-3.53-2.08-1.5-.34-3.25-.51-5.23-.51h-8.84l.85,15.14Z"/>
    <path class="cls-1" d="m96.91,314.85c-4.37,0-8.49-.44-12.37-1.32-3.88-.88-7.31-2.45-10.29-4.72-2.98-2.27-5.31-5.41-7.02-9.44-1.7-4.02-2.55-9.18-2.55-15.48s.91-11.1,2.72-15.09c1.81-4,4.24-7.16,7.27-9.48,3.03-2.32,6.41-3.97,10.12-4.93,3.71-.96,7.47-1.45,11.27-1.45,2.78,0,5.19.14,7.23.43,2.04.28,4,.65,5.87,1.11l11.56,6.72-5.95,13.18-18.79-6.63c-2.72,0-5.23.54-7.53,1.62-2.3,1.08-4.14,2.79-5.53,5.14-1.39,2.35-2.08,5.51-2.08,9.48,0,6.41,1.43,10.9,4.29,13.48,2.86,2.58,6.79,3.87,11.78,3.87,2.55,0,4.55-.13,5.99-.38s2.56-.47,3.36-.64v-6.46h-10.8v-12.58h27.04l.94,5.1-1.87,7.06v17.86c-.62.23-2.03.63-4.21,1.19-2.18.57-5.02,1.11-8.5,1.62-3.49.51-7.47.76-11.95.76Z"/>
    <path class="cls-1" d="m133.64,314v-46.51l-1.7-8.59,1.7-5.1h27.21c4.14,0,7.87.64,11.18,1.91,3.32,1.28,5.95,3.43,7.91,6.46,1.96,3.03,2.93,7.21,2.93,12.54,0,4.82-.88,8.72-2.64,11.69-1.76,2.98-4.2,5.2-7.31,6.68l.85.94,8.42,10.54,4.85,4.34v5.1h-19.13l-11.9-18.11h-7.06v4.42l.85,8.5-.85,5.19h-15.31Zm15.31-31.46h8.33c2.95,0,5.3-.55,7.06-1.66,1.76-1.11,2.64-3.16,2.64-6.17,0-2.1-.42-3.67-1.28-4.72-.85-1.05-2.03-1.74-3.53-2.08-1.5-.34-3.25-.51-5.23-.51h-8.84l.85,15.14Z"/>
    <path class="cls-1" d="m193.84,314v-46.6l-.85-8.5.85-5.1h15.39v60.2h-15.39Z"/>
    <path class="cls-1" d="m27.36,381.81c-3.12,0-6.07-.3-8.84-.89-2.78-.6-5.19-1.32-7.23-2.17-2.04-.85-3.54-1.64-4.51-2.38v-15.22c2.72,1.53,6.15,2.96,10.29,4.29,4.14,1.33,8.73,2,13.78,2,2.04,0,3.56-.27,4.55-.81.99-.54,1.49-1.49,1.49-2.85,0-1.47-1.12-2.71-3.36-3.7-2.24-.99-5.77-2.22-10.59-3.7-3.74-1.19-6.93-2.51-9.57-3.95-2.64-1.44-4.65-3.26-6.04-5.44-1.39-2.18-2.08-4.97-2.08-8.38s.91-6.69,2.72-9.52c1.81-2.83,4.65-5.07,8.5-6.72,3.85-1.64,8.79-2.47,14.8-2.47,1.81,0,3.75.07,5.82.21,2.07.14,3.73.33,4.97.55l9.61,7.06-3.32,10.37-20.15-5.53c-2.33,0-4.04.48-5.14,1.44-1.11.96-1.66,2.13-1.66,3.49,0,1.65.94,2.95,2.81,3.91,1.87.96,4.56,1.93,8.08,2.89,5.55,1.53,9.86,3.23,12.92,5.1s5.21,3.98,6.46,6.33c1.25,2.35,1.87,5,1.87,7.95,0,5.44-2.18,9.82-6.55,13.14-4.37,3.32-10.91,4.97-19.64,4.97Z"/>
    <path class="cls-1" d="m88.32,381.81c-8.73,0-15.29-2-19.68-6-4.39-4-6.59-10.42-6.59-19.26v-22.11l.09-8.59-.09-5.1h15.48v34.1c0,3.97.79,7.18,2.38,9.65,1.59,2.47,4.39,3.7,8.42,3.7s6.87-1.15,8.55-3.44c1.67-2.3,2.51-5.6,2.51-9.91v-34.1h15.22v35.8c0,8.67-2.14,15.05-6.42,19.13-4.28,4.08-10.9,6.12-19.85,6.12Z"/>
    <path class="cls-1" d="m126.5,380.96v-46.51l-1.7-8.5,1.79-5.1h16.24l16.67,32.31h1.7l13.78-32.31h16.92l.85,5.1-.85,8.16v46.85h-15.39l.25-7.23v-23.72h-.94l-3.4,8.16-7.65,14.29h-10.2l-11.73-22.45h-.85v6.89l.85,24.06h-16.33Z"/>
    <path class="cls-1" d="m204.64,380.96v-46.51l-1.7-8.5,1.79-5.1h16.24l16.67,32.31h1.7l13.78-32.31h16.92l.85,5.1-.85,8.16v46.85h-15.39l.25-7.23v-23.72h-.94l-3.4,8.16-7.65,14.29h-10.2l-11.73-22.45h-.85v6.89l.85,24.06h-16.33Z"/>
    <path class="cls-1" d="m281.93,380.96v-46.6l-.85-8.5.85-5.1h15.39v60.2h-15.39Z"/>
    <path class="cls-1" d="m321.13,380.96v-46.6l-17.01.85v-14.46h49.74v14.46l-17.43-.85v32.99l.93,8.5-.93,5.1h-15.3Z"/>
    <path class="cls-1" d="m2.3,420.08v-4.04c1.14-.77,2.15-1.46,3.04-2.08.89-.62,1.81-1.3,2.76-2.04.95-.74,1.8-1.47,2.54-2.19,1.61-1.51,2.81-2.86,3.6-4.04.79-1.19,1.19-2.5,1.19-3.93,0-.96-.3-1.73-.91-2.28-.61-.56-1.6-.83-2.99-.83-1.04,0-2.09.11-3.15.33s-2.05.5-2.97.83c-.92.33-1.69.67-2.34,1.02v-5.2c.25-.12.75-.35,1.5-.69.75-.34,1.75-.65,2.99-.95,1.24-.3,2.7-.45,4.38-.45,3.14,0,5.47.67,6.99,2.02,1.52,1.35,2.28,3.26,2.28,5.73,0,1.53-.32,2.96-.95,4.27-.63,1.31-1.46,2.51-2.49,3.6-1.03,1.09-2.13,2.08-3.3,2.97-1.18.89-2.31,1.68-3.4,2.37l.19.74,9.94-.74v5.57H2.3Z"/>
    <path class="cls-1" d="m32.36,393.82v27.48h4.07v-27.48h-4.07Z"/>
    <path class="cls-1" d="m57.88,420.46c-2.1,0-3.93-.43-5.47-1.3-1.55-.87-2.74-2.28-3.58-4.25-.84-1.97-1.26-4.62-1.26-7.96s.42-5.78,1.26-7.76c.84-1.98,2.03-3.43,3.58-4.36,1.55-.93,3.37-1.39,5.47-1.39s3.96.47,5.49,1.41c1.53.94,2.72,2.4,3.56,4.38.84,1.98,1.26,4.55,1.26,7.72s-.42,5.92-1.26,7.9c-.84,1.98-2.03,3.41-3.56,4.28-1.53.88-3.36,1.32-5.49,1.32Zm0-5.34c1.71,0,2.93-.61,3.67-1.84.74-1.22,1.11-3.33,1.11-6.33,0-2.82-.37-4.89-1.11-6.2-.74-1.31-1.97-1.97-3.67-1.97s-2.87.66-3.64,1.99c-.77,1.32-1.15,3.38-1.15,6.18,0,2.97.38,5.07,1.15,6.31s1.98,1.86,3.64,1.86Z"/>
    <path class="cls-1" d="m79.31,393.82v27.48h4.09v-27.48h-4.09Z"/>
    <path class="cls-1" d="m94.35,420.08v-4.04c1.14-.77,2.15-1.46,3.04-2.08.89-.62,1.81-1.3,2.76-2.04.95-.74,1.8-1.47,2.54-2.19,1.61-1.51,2.81-2.86,3.6-4.04.79-1.19,1.19-2.5,1.19-3.93,0-.96-.3-1.73-.91-2.28-.61-.56-1.6-.83-2.99-.83-1.04,0-2.09.11-3.15.33s-2.05.5-2.97.83c-.92.33-1.69.67-2.34,1.02v-5.2c.25-.12.75-.35,1.5-.69.75-.34,1.75-.65,2.99-.95,1.24-.3,2.7-.45,4.38-.45,3.14,0,5.47.67,6.99,2.02,1.52,1.35,2.28,3.26,2.28,5.73,0,1.53-.32,2.96-.95,4.27-.63,1.31-1.46,2.51-2.49,3.6-1.03,1.09-2.13,2.08-3.3,2.97-1.18.89-2.31,1.68-3.4,2.37l.19.74,9.94-.74v5.57h-18.92Z"/>
    <path class="cls-1" d="m124.41,393.82v27.48h4.07v-27.48h-4.07Z"/>
    <path class="cls-1" d="m148.78,420.46c-.94,0-1.75-.03-2.43-.08s-1.37-.12-2.06-.22l-4.67-1.71,1.48-5.16,6.57,2.04c1.71,0,3.01-.32,3.91-.95.9-.63,1.35-1.54,1.35-2.73,0-1.11-.31-2-.93-2.67-.62-.67-1.81-1-3.56-1h-7.72v-14.17h16.51v5.16l-9.28-.37h-1.56v5.05h2.49c3.44,0,5.94.66,7.5,1.97,1.56,1.31,2.34,3.25,2.34,5.83,0,1.76-.39,3.31-1.17,4.67-.78,1.36-1.91,2.42-3.39,3.19-1.48.77-3.28,1.15-5.38,1.15Z"/>
  </g>
  <g>
    <path class="cls-1" d="m137.58,189.71c-8.78-4.47-19.56-.96-24.04,7.82-4.47,8.78-.96,19.56,7.82,24.03,2.59,1.32,5.35,1.94,8.08,1.94,6.51,0,12.81-3.57,15.96-9.76,2.16-4.25,2.54-9.09,1.06-13.63-1.48-4.54-4.63-8.24-8.88-10.4Zm-3.05,18.5c-1.42,2.79-4.85,3.9-7.63,2.49-1.35-.69-2.35-1.86-2.82-3.3-.47-1.44-.35-2.98.34-4.33.68-1.35,1.86-2.35,3.3-2.82.58-.19,1.18-.28,1.77-.28.88,0,1.76.21,2.57.62,2.79,1.42,3.9,4.84,2.48,7.63Z"/>
    <path class="cls-1" d="m25.97,139.59c-4.71-.74-9.43.39-13.3,3.2-3.86,2.81-6.4,6.95-7.15,11.66-.74,4.71.39,9.43,3.2,13.3,2.81,3.86,6.95,6.4,11.66,7.15.94.15,1.87.22,2.8.22,8.64,0,16.25-6.29,17.64-15.08.74-4.71-.39-9.43-3.2-13.3-2.81-3.86-6.95-6.4-11.66-7.15Zm2.82,18.54h0c-.24,1.5-1.04,2.81-2.27,3.7-1.23.89-2.73,1.26-4.22,1.02-1.5-.24-2.81-1.04-3.7-2.27-.89-1.23-1.25-2.73-1.02-4.22.24-1.5,1.04-2.81,2.27-3.7.98-.71,2.14-1.09,3.33-1.09.3,0,.6.02.9.07,1.49.24,2.81,1.04,3.7,2.27s1.25,2.73,1.02,4.22Z"/>
    <path class="cls-1" d="m25.87,55.65c3.09,2.24,6.73,3.42,10.46,3.42.94,0,1.89-.07,2.83-.22,4.71-.75,8.85-3.29,11.65-7.16,2.81-3.87,3.94-8.59,3.19-13.3-.75-4.71-3.29-8.85-7.16-11.65-3.87-2.81-8.59-3.95-13.3-3.19-4.71.75-8.85,3.29-11.65,7.16-2.81,3.87-3.94,8.59-3.19,13.3.75,4.71,3.29,8.85,7.16,11.65Zm9.6-20.06c.3-.05.6-.07.89-.07,2.74,0,5.16,2,5.6,4.79.49,3.09-1.63,6.01-4.72,6.5-1.49.24-2.99-.12-4.22-1.02-1.23-.89-2.04-2.21-2.27-3.7-.49-3.09,1.63-6.01,4.72-6.5Z"/>
    <path class="cls-1" d="m145.3,34.86c1.82.59,3.69.88,5.55.88,2.78,0,5.54-.66,8.09-1.96,8.78-4.48,12.28-15.26,7.8-24.04-4.48-8.78-15.26-12.28-24.04-7.8-8.78,4.48-12.28,15.26-7.8,24.04,2.17,4.25,5.86,7.4,10.41,8.87Zm.12-18.74c.47-1.45,1.47-2.62,2.82-3.31,1.35-.69,2.89-.81,4.33-.34,1.44.47,2.62,1.47,3.31,2.82.69,1.35.81,2.89.34,4.33-.47,1.45-1.47,2.62-2.82,3.31-1.34.69-2.88.81-4.33.34-1.44-.47-2.62-1.47-3.31-2.82-.69-1.35-.81-2.88-.34-4.33Z"/>
    <path class="cls-1" d="m179.78,122.77l24.42-49.72c1.41-2.87.84-6.31-1.42-8.57-2.26-2.26-5.7-2.83-8.57-1.42l-49.7,24.46-29.2-21.77-4.66-32.33,27.31,26.51c2.02,1.96,4.94,2.62,7.6,1.71l41.39-14.05c3.89-1.32,5.98-5.57,4.66-9.47-1.32-3.89-5.57-5.99-9.46-4.66l-37.06,12.58L105.34,7.47c-2.29-2.23-5.74-2.75-8.59-1.3-2.85,1.45-4.45,4.55-3.99,7.71l7.9,54.82-29.73,21.04-32.19-5.56,33.66-17.78c2.49-1.31,4.01-3.88,3.98-6.7l-.58-43.7c-.06-4.11-3.49-7.37-7.56-7.36-4.11.06-7.41,3.45-7.36,7.56l.52,39.14-48.98,25.87c-2.83,1.49-4.39,4.61-3.89,7.76.5,3.16,2.95,5.64,6.1,6.18l54.58,9.43,10.82,34.78-15.23,28.89-6.51-37.5c-.48-2.77-2.45-5.02-5.14-5.85l-41.74-12.96c-3.92-1.21-8.12.99-9.34,4.91-1.22,3.93.99,8.12,4.91,9.34l37.38,11.6,9.47,54.57c.55,3.15,3.03,5.6,6.19,6.09,3.15.5,6.27-1.07,7.76-3.89l25.83-49,36.42.45,22.77,23.42-37.68-5.4c-2.78-.4-5.53.78-7.15,3.08l-25.22,35.69c-2.37,3.36-1.57,8.02,1.79,10.4,1.3.92,2.8,1.36,4.29,1.36,2.34,0,4.65-1.1,6.11-3.15l22.59-31.96,54.83,7.86c3.14.45,6.25-1.15,7.71-4,1.45-2.85.92-6.3-1.3-8.59l-38.61-39.71,11.68-34.5,29.31-14.42-16.78,34.17c-1.24,2.53-.97,5.5.72,7.75l26.15,35.02c2.46,3.29,7.14,3.97,10.44,1.51,3.3-2.46,3.97-7.15,1.51-10.44l-23.42-31.36Zm-69.79-42.38l26.29,19.6-10.52,31.07-32.8-.41-9.75-31.32,26.77-18.95Z"/>
    <path class="cls-1" d="m220.99,106.86c-6.97-6.96-18.31-6.96-25.27.01-6.97,6.97-6.96,18.31,0,25.28,3.49,3.48,8.06,5.22,12.63,5.22s9.16-1.74,12.64-5.23c6.97-6.97,6.96-18.31,0-25.28Zm-8.62,16.66c-2.21,2.22-5.82,2.21-8.03,0-2.21-2.21-2.21-5.82,0-8.03,1.11-1.11,2.56-1.66,4.02-1.66s2.91.55,4.01,1.66c2.21,2.21,2.21,5.82,0,8.03Z"/>
  </g>
</svg>