<?xml version="1.0" encoding="UTF-8"?>
<svg id="Layer_1" data-name="Layer 1" xmlns="http://www.w3.org/2000/svg" viewBox="0 0 500 184.26">
  <defs>
    <style>
      .cls-1 {
        fill: #fefefe;
        stroke-width: 0px;
      }
    </style>
  </defs>
  <g>
    <path class="cls-1" d="m214.7,73.07v-38.34l-1.4-7.08,1.4-4.21h22.43c3.41,0,6.48.53,9.22,1.58,2.73,1.05,4.91,2.83,6.52,5.33,1.61,2.5,2.42,5.95,2.42,10.34s-.87,7.86-2.59,10.41c-1.73,2.55-4.12,4.36-7.19,5.43-3.06,1.08-6.55,1.61-10.48,1.61h-7.71v3.64l.7,7.01-.7,4.28h-12.62Zm12.62-25.94h6.87c2.43,0,4.37-.46,5.82-1.37,1.45-.91,2.17-2.61,2.17-5.08,0-1.73-.35-3.03-1.05-3.89-.7-.86-1.67-1.44-2.91-1.72-1.24-.28-2.68-.42-4.31-.42h-7.29l.7,12.48Z"/>
    <path class="cls-1" d="m288.17,73.77c-3.6,0-7-.36-10.2-1.09-3.2-.72-6.03-2.02-8.48-3.89-2.45-1.87-4.38-4.46-5.78-7.78-1.4-3.32-2.1-7.57-2.1-12.76s.75-9.15,2.24-12.44c1.49-3.29,3.49-5.9,5.99-7.82,2.5-1.92,5.28-3.27,8.34-4.07,3.06-.79,6.16-1.19,9.29-1.19,2.29,0,4.28.12,5.96.35,1.68.23,3.29.54,4.84.91l9.53,5.54-4.91,10.87-15.49-5.47c-2.24,0-4.31.44-6.2,1.33-1.89.89-3.41,2.3-4.56,4.24-1.15,1.94-1.72,4.55-1.72,7.82,0,5.28,1.18,8.98,3.54,11.11,2.36,2.13,5.6,3.19,9.71,3.19,2.1,0,3.75-.11,4.94-.32s2.11-.39,2.77-.53v-5.33h-8.9v-10.37h22.29l.77,4.21-1.54,5.82v14.72c-.51.19-1.67.52-3.47.98-1.8.47-4.14.91-7.01,1.33-2.87.42-6.16.63-9.85.63Z"/>
    <path class="cls-1" d="m318.45,73.07v-38.34l-1.4-7.08,1.4-4.21h22.43c3.41,0,6.48.53,9.22,1.58,2.73,1.05,4.91,2.83,6.52,5.33,1.61,2.5,2.42,5.95,2.42,10.34,0,3.97-.73,7.19-2.17,9.64-1.45,2.45-3.46,4.29-6.03,5.5l.7.77,6.94,8.69,4,3.58v4.21h-15.77l-9.81-14.93h-5.82v3.64l.7,7.01-.7,4.28h-12.62Zm12.62-25.94h6.87c2.43,0,4.37-.46,5.82-1.37,1.45-.91,2.17-2.61,2.17-5.08,0-1.73-.35-3.03-1.05-3.89-.7-.86-1.67-1.44-2.91-1.72-1.24-.28-2.68-.42-4.31-.42h-7.29l.7,12.48Z"/>
    <path class="cls-1" d="m368.08,73.07v-38.41l-.7-7.01.7-4.21h12.69v49.63h-12.69Z"/>
    <path class="cls-1" d="m230.83,128.97c-2.57,0-5-.25-7.29-.74-2.29-.49-4.28-1.09-5.96-1.79-1.68-.7-2.92-1.35-3.71-1.96v-12.55c2.24,1.26,5.07,2.44,8.48,3.54,3.41,1.1,7.2,1.65,11.36,1.65,1.68,0,2.93-.22,3.75-.67.82-.44,1.23-1.23,1.23-2.35,0-1.21-.92-2.23-2.77-3.05-1.85-.82-4.76-1.83-8.73-3.05-3.08-.98-5.71-2.07-7.89-3.26-2.17-1.19-3.83-2.69-4.98-4.49-1.15-1.8-1.72-4.1-1.72-6.91s.75-5.51,2.24-7.85c1.5-2.34,3.83-4.18,7.01-5.54,3.18-1.35,7.24-2.03,12.2-2.03,1.49,0,3.1.06,4.8.18,1.71.12,3.07.27,4.1.46l7.92,5.82-2.73,8.55-16.61-4.56c-1.92,0-3.33.4-4.24,1.19-.91.8-1.37,1.75-1.37,2.87,0,1.36.77,2.43,2.31,3.22,1.54.8,3.76,1.59,6.66,2.38,4.58,1.26,8.13,2.66,10.65,4.21s4.3,3.28,5.33,5.22c1.03,1.94,1.54,4.12,1.54,6.55,0,4.49-1.8,8.1-5.4,10.83-3.6,2.73-9,4.1-16.19,4.1Z"/>
    <path class="cls-1" d="m281.09,128.97c-7.2,0-12.61-1.65-16.23-4.94-3.62-3.29-5.43-8.59-5.43-15.88v-18.23l.07-7.08-.07-4.21h12.76v28.11c0,3.27.65,5.92,1.96,7.96,1.31,2.03,3.62,3.05,6.94,3.05s5.67-.95,7.04-2.84c1.38-1.89,2.07-4.62,2.07-8.17v-28.11h12.55v29.51c0,7.15-1.76,12.41-5.29,15.77-3.53,3.36-8.99,5.05-16.37,5.05Z"/>
    <path class="cls-1" d="m312.56,128.26v-38.34l-1.4-7.01,1.47-4.21h13.39l13.74,26.64h1.4l11.36-26.64h13.95l.7,4.21-.7,6.73v38.62h-12.69l.21-5.96v-19.56h-.77l-2.8,6.73-6.31,11.78h-8.41l-9.67-18.51h-.7v5.68l.7,19.84h-13.46Z"/>
    <path class="cls-1" d="m376.98,128.26v-38.34l-1.4-7.01,1.47-4.21h13.39l13.74,26.64h1.4l11.36-26.64h13.95l.7,4.21-.7,6.73v38.62h-12.69l.21-5.96v-19.56h-.77l-2.8,6.73-6.31,11.78h-8.41l-9.67-18.51h-.7v5.68l.7,19.84h-13.46Z"/>
    <path class="cls-1" d="m440.7,128.26v-38.41l-.7-7.01.7-4.21h12.69v49.63h-12.69Z"/>
    <path class="cls-1" d="m473.01,128.26v-38.41l-14.02.7v-11.92h41.01v11.92l-14.37-.7v27.2l.77,7.01-.77,4.21h-12.62Z"/>
    <path class="cls-1" d="m210.17,160.52v-3.33c.94-.63,1.77-1.2,2.51-1.71.73-.51,1.49-1.07,2.28-1.68.78-.61,1.48-1.21,2.1-1.8,1.32-1.24,2.31-2.35,2.97-3.33.65-.98.98-2.06.98-3.24,0-.8-.25-1.42-.75-1.88-.5-.46-1.32-.69-2.46-.69-.86,0-1.72.09-2.6.28s-1.69.41-2.45.69c-.75.28-1.4.56-1.93.84v-4.28c.2-.1.62-.29,1.24-.57.62-.28,1.44-.54,2.46-.78,1.02-.25,2.22-.37,3.61-.37,2.59,0,4.51.56,5.77,1.67,1.25,1.11,1.88,2.69,1.88,4.73,0,1.26-.26,2.44-.78,3.52-.52,1.08-1.2,2.07-2.05,2.97-.85.9-1.75,1.71-2.72,2.45-.97.73-1.9,1.39-2.8,1.96l.15.61,8.2-.61v4.59h-15.6Z"/>
    <path class="cls-1" d="m234.95,138.87v22.66h3.35v-22.66h-3.35Z"/>
    <path class="cls-1" d="m255.99,160.83c-1.73,0-3.24-.36-4.51-1.07-1.27-.71-2.26-1.88-2.95-3.5-.69-1.62-1.04-3.81-1.04-6.56s.35-4.76,1.04-6.39c.69-1.63,1.68-2.83,2.95-3.59,1.27-.77,2.78-1.15,4.51-1.15s3.26.39,4.53,1.16c1.26.78,2.24,1.98,2.94,3.61.69,1.63,1.04,3.75,1.04,6.36s-.35,4.88-1.04,6.52-1.67,2.81-2.94,3.53c-1.26.72-2.77,1.09-4.53,1.09Zm0-4.4c1.41,0,2.42-.51,3.03-1.51.61-1.01.92-2.75.92-5.22,0-2.32-.31-4.03-.92-5.11-.61-1.08-1.62-1.62-3.03-1.62s-2.37.55-3,1.64c-.63,1.09-.95,2.79-.95,5.09,0,2.45.32,4.18.95,5.2s1.63,1.53,3,1.53Z"/>
    <path class="cls-1" d="m273.66,138.87v22.66h3.37v-22.66h-3.37Z"/>
    <path class="cls-1" d="m286.06,160.52v-3.33c.94-.63,1.77-1.2,2.51-1.71.73-.51,1.49-1.07,2.28-1.68.78-.61,1.48-1.21,2.1-1.8,1.32-1.24,2.31-2.35,2.97-3.33.65-.98.98-2.06.98-3.24,0-.8-.25-1.42-.75-1.88-.5-.46-1.32-.69-2.46-.69-.86,0-1.72.09-2.6.28s-1.69.41-2.45.69c-.75.28-1.4.56-1.93.84v-4.28c.2-.1.62-.29,1.24-.57.62-.28,1.44-.54,2.46-.78,1.02-.25,2.22-.37,3.61-.37,2.59,0,4.51.56,5.77,1.67,1.25,1.11,1.88,2.69,1.88,4.73,0,1.26-.26,2.44-.78,3.52-.52,1.08-1.2,2.07-2.05,2.97-.85.9-1.75,1.71-2.72,2.45-.97.73-1.9,1.39-2.8,1.96l.15.61,8.2-.61v4.59h-15.6Z"/>
    <path class="cls-1" d="m310.84,138.87v22.66h3.35v-22.66h-3.35Z"/>
    <path class="cls-1" d="m330.93,160.83c-.78,0-1.44-.02-2-.06s-1.13-.1-1.7-.18l-3.85-1.41,1.22-4.25,5.41,1.68c1.41,0,2.48-.26,3.23-.78.74-.52,1.12-1.27,1.12-2.25,0-.92-.26-1.65-.76-2.2-.51-.55-1.49-.83-2.94-.83h-6.36v-11.68h13.61v4.25l-7.65-.31h-1.28v4.16h2.05c2.83,0,4.89.54,6.18,1.62,1.28,1.08,1.93,2.68,1.93,4.8,0,1.45-.32,2.73-.96,3.85s-1.58,2-2.8,2.63-2.7.95-4.44.95Z"/>
  </g>
  <g>
    <path class="cls-1" d="m111.98,156.4c-7.24-3.69-16.13-.79-19.82,6.45-3.68,7.24-.79,16.13,6.45,19.81,2.14,1.09,4.41,1.6,6.66,1.6,5.37,0,10.56-2.94,13.16-8.05,1.78-3.5,2.09-7.49.87-11.24-1.22-3.75-3.82-6.79-7.32-8.57Zm-2.51,15.25c-1.17,2.3-4,3.22-6.29,2.05-1.11-.57-1.94-1.53-2.33-2.72-.39-1.19-.29-2.46.28-3.57.56-1.11,1.53-1.94,2.72-2.32.48-.16.97-.23,1.46-.23.73,0,1.45.17,2.11.51,2.3,1.17,3.22,3.99,2.05,6.29Z"/>
    <path class="cls-1" d="m19.97,115.07c-3.88-.61-7.77.33-10.96,2.64-3.19,2.32-5.28,5.73-5.89,9.61-.61,3.88.33,7.77,2.64,10.96,2.32,3.19,5.73,5.28,9.61,5.89.78.12,1.55.18,2.31.18,7.12,0,13.4-5.19,14.54-12.43.61-3.88-.32-7.77-2.64-10.96-2.32-3.19-5.73-5.28-9.61-5.89Zm2.32,15.28h0c-.19,1.23-.86,2.32-1.87,3.05-1.01.74-2.25,1.04-3.48.84-1.23-.19-2.32-.86-3.05-1.87-.74-1.01-1.03-2.25-.84-3.48s.86-2.32,1.87-3.05c.81-.59,1.76-.9,2.74-.9.25,0,.49.02.74.06,1.23.19,2.32.86,3.05,1.87s1.03,2.25.84,3.48Z"/>
    <path class="cls-1" d="m19.88,45.88c2.55,1.85,5.54,2.82,8.63,2.82.77,0,1.55-.06,2.33-.18,3.88-.62,7.29-2.71,9.61-5.9,2.32-3.19,3.25-7.08,2.63-10.96-.62-3.88-2.71-7.29-5.9-9.61-3.19-2.32-7.08-3.25-10.96-2.63-3.88.62-7.29,2.71-9.61,5.9s-3.25,7.08-2.63,10.96c.62,3.88,2.71,7.29,5.9,9.61Zm7.92-16.54c.25-.04.49-.06.74-.06,2.26,0,4.25,1.65,4.62,3.95.4,2.55-1.34,4.95-3.89,5.36-1.23.2-2.47-.1-3.48-.84-1.01-.74-1.68-1.82-1.87-3.05-.4-2.55,1.34-4.95,3.89-5.36Z"/>
    <path class="cls-1" d="m118.34,28.74c1.5.49,3.04.73,4.57.73,2.29,0,4.57-.54,6.67-1.61,7.24-3.69,10.12-12.58,6.43-19.82-3.69-7.24-12.58-10.12-19.82-6.43-7.24,3.69-10.12,12.58-6.43,19.82,1.79,3.5,4.83,6.1,8.58,7.32Zm.1-15.45c.39-1.19,1.21-2.16,2.32-2.73,1.11-.57,2.38-.67,3.57-.28,1.19.39,2.16,1.21,2.73,2.32.57,1.11.67,2.38.28,3.57-.39,1.19-1.21,2.16-2.32,2.73-1.11.57-2.37.67-3.57.28-1.19-.39-2.16-1.21-2.73-2.32-.57-1.11-.67-2.38-.28-3.57Z"/>
    <path class="cls-1" d="m146.77,101.21l20.13-40.99c1.16-2.36.69-5.2-1.17-7.06-1.86-1.86-4.7-2.33-7.06-1.17l-40.97,20.16-24.07-17.95-3.84-26.65,22.51,21.86c1.67,1.62,4.07,2.16,6.26,1.41l34.12-11.58c3.21-1.09,4.93-4.59,3.84-7.8-1.09-3.21-4.59-4.94-7.8-3.84l-30.55,10.37L85.4,6.16c-1.89-1.84-4.73-2.26-7.08-1.07-2.35,1.2-3.67,3.75-3.29,6.36l6.51,45.2-24.51,17.35-26.54-4.58,27.75-14.66c2.05-1.08,3.31-3.2,3.28-5.52l-.47-36.03c-.05-3.39-2.88-6.07-6.23-6.07-3.39.05-6.11,2.84-6.07,6.23l.43,32.26-40.38,21.33c-2.33,1.23-3.62,3.8-3.2,6.4.41,2.6,2.43,4.65,5.03,5.1l45,7.77,8.92,28.67-12.56,23.82-5.37-30.92c-.4-2.29-2.02-4.14-4.24-4.82l-34.41-10.68c-3.23-1-6.69.81-7.7,4.05-1.01,3.24.81,6.69,4.05,7.7l30.82,9.57,7.81,44.99c.45,2.59,2.5,4.61,5.1,5.02,2.6.41,5.17-.88,6.4-3.21l21.3-40.39,30.02.37,18.77,19.3-31.06-4.45c-2.29-.33-4.56.64-5.9,2.54l-20.79,29.43c-1.96,2.77-1.29,6.61,1.48,8.57,1.08.76,2.31,1.12,3.54,1.12,1.93,0,3.84-.91,5.03-2.6l18.62-26.35,45.2,6.48c2.59.37,5.16-.95,6.36-3.3,1.19-2.35.76-5.19-1.08-7.08l-31.83-32.74,9.63-28.44,24.16-11.89-13.83,28.17c-1.02,2.08-.8,4.53.59,6.39l21.56,28.87c2.03,2.72,5.89,3.28,8.61,1.25,2.72-2.03,3.28-5.89,1.24-8.61l-19.31-25.85Zm-57.54-34.93l21.67,16.16-8.67,25.61-27.04-.33-8.04-25.82,22.07-15.62Z"/>
    <path class="cls-1" d="m180.74,88.1c-5.75-5.74-15.09-5.74-20.84,0-5.74,5.75-5.74,15.09,0,20.84,2.87,2.87,6.64,4.3,10.42,4.3s7.55-1.44,10.42-4.31c5.74-5.75,5.74-15.09,0-20.84Zm-7.1,13.73c-1.83,1.83-4.79,1.83-6.62,0-1.82-1.82-1.82-4.79,0-6.62.91-.91,2.11-1.37,3.31-1.37s2.4.46,3.31,1.37c1.83,1.83,1.83,4.79,0,6.62Z"/>
  </g>
</svg>